<svg width="374" height="36" viewBox="0 0 374 36" fill="none" xmlns="http://www.w3.org/2000/svg">
<path fillRule="evenodd" clipRule="evenodd" d="M209.783 7.97312L209.468 34.7472H215.296C214.723 32.2877 214.96 19.8042 214.982 15.6893C214.992 13.6991 214.666 11.5242 214.666 9.54795C214.687 9.58124 214.709 9.59799 214.716 9.65473L214.93 10.2282C215.055 10.6263 215.058 10.6819 215.171 11.0898C216.14 14.5877 220.379 23.8531 222.092 28.1083C222.642 29.4738 224.236 33.1084 224.273 34.7472H229.313C229.344 33.3184 230.843 29.7534 231.428 28.3575C233.658 23.0318 236.59 16.8119 238.351 11.4991L238.861 9.96184C238.872 9.94007 238.898 9.89451 238.92 9.86307C238.92 11.9277 238.762 13.7756 238.762 16.0054C238.762 19.1059 238.904 25.9997 238.763 28.6057L238.447 34.7472H244.117C244.117 33.8279 243.999 33.5921 243.959 32.858C243.92 32.145 243.999 31.3647 243.96 30.6517C243.562 23.2688 243.842 15.7007 243.8 8.286C243.795 7.32671 243.92 6.99634 243.96 6.2413C243.999 5.52829 243.92 4.74794 243.959 4.03493C244 3.28026 244.117 2.94711 244.117 1.98819H236.557C236.273 3.20828 236.081 4.19492 235.674 5.35679C235.28 6.47773 234.863 7.40595 234.421 8.51406C233.833 9.98862 227.004 26.3805 226.95 27.0299C226.338 26.581 220.267 10.9269 219.237 8.59889C218.301 6.48164 217.606 4.46725 217.028 1.98819H209.468C209.468 2.7384 209.545 2.90506 209.603 3.4287L209.783 7.97312Z" fill="white"/>
<path fillRule="evenodd" clipRule="evenodd" d="M44.0985 16.6353C44.7676 15.6363 48.7102 12.0361 49.9259 11.753C50.0282 12.1924 50.1725 12.4225 50.3405 12.9132C50.6824 13.9112 51.1783 15.7881 51.9732 16.3203C51.6709 16.7435 52.0243 16.3512 51.0397 16.309C48.1391 16.1842 46.2092 16.6353 44.0985 16.6353ZM56.3831 6.24058C57.6886 6.24058 58.5792 6.01811 59.6905 5.92566L60.163 13.1705C59.5253 13.1846 59.252 13.3026 58.4308 13.3282C57.614 13.3537 57.4558 13.4854 56.5406 13.4854L56.3831 6.24058ZM59.3756 1.35835C59.3756 2.23264 59.5329 2.29216 59.5329 3.09074C58.4821 3.11417 57.6584 3.56323 56.5406 3.56323C56.2034 3.56323 56.0853 2.46069 55.2806 2.46069C54.3551 2.46069 53.2332 2.65955 53.2332 3.56323C53.2332 6.78562 53.559 9.60862 53.5445 12.7015C53.5398 13.7099 53.7007 13.9864 53.7119 14.8966L53.7057 22.1477C52.8698 21.186 52.8235 20.7302 51.1858 20.7302C51.3567 19.9962 51.3573 19.1396 51.6644 18.5315C51.9841 17.8987 52.6067 17.4699 52.1307 16.4779C52.9047 16.3931 53.218 15.4645 53.4057 14.7459C53.6083 13.9713 51.9492 9.67763 51.4975 9.23639C51.2025 8.94825 50.9335 8.80502 50.3983 8.76056C50.8301 8.11582 53.4221 4.5082 51.0282 4.5082C49.6035 4.5082 48.8226 5.40256 47.9195 6.28187C47.4572 6.73203 47.1382 6.89368 46.6564 7.38105C46.2109 7.83195 45.8619 8.26594 45.3584 8.603C45.6229 7.4683 46.0386 6.27052 46.146 4.98067C47.0811 5.60681 47.0619 5.78222 46.5556 3.78402C46.0554 1.81074 46.2152 1.25343 44.4134 1.67328C44.4134 2.688 43.9285 6.08266 43.626 6.71307C42.639 6.44948 42.0988 5.45316 40.9486 5.45316C37.5421 5.45316 39.9676 8.58589 40.9847 9.827C41.2288 10.1248 41.2892 10.2487 41.5407 10.5309C42.1883 11.2573 42.825 12.1615 43.626 12.698C43.3068 13.1746 42.9736 13.3723 42.5901 13.8669C42.1998 14.3701 41.5785 14.8644 41.5785 15.3754C41.5785 16.1377 41.9788 16.0813 42.051 16.9504C41.2926 16.9504 40.3536 17.1794 39.8461 17.4229C39.9806 19.0397 41.4306 19.1679 42.5664 20.0597C42.9932 20.3947 43.242 20.675 43.7835 20.4151C43.3263 19.7325 42.974 19.6913 42.5235 18.8403C44.7581 18.6543 46.9914 18.5252 49.4534 18.5252C49.2945 19.207 49.4697 20.3714 48.6548 20.5617C47.8131 20.7583 47.3625 20.7317 46.6544 21.3962C44.9874 22.9604 42.343 26.6159 40.6663 28.4844C39.8095 29.4391 40.5271 30.5263 41.4211 31.1249C42.5419 30.1508 44.3877 27.6081 46.5067 25.8158C47.1001 25.3139 47.9016 24.5566 48.6658 24.3526C49.1247 26.322 48.0642 33.1168 50.5557 33.1722C50.7133 32.5828 51.1858 32.1458 51.1858 31.4399V26.5575C51.1858 25.2241 51.0282 24.5535 51.0282 23.2501C52.2976 23.2501 52.1482 24.15 52.1287 26.7171C52.1184 28.051 52.2522 29.7677 53.8631 29.3924V30.18C53.4661 30.3704 53.0837 30.4742 52.5336 30.5827C51.9544 30.6969 51.3433 30.6826 51.3433 31.2823C51.3433 32.4341 52.5669 33.4083 53.3906 33.9598L53.6691 33.4507C53.9308 32.9953 53.4555 33.3817 54.021 33.0153C54.9418 32.4185 59.149 32.0507 60.1077 30.7546C62.2533 27.854 58.1017 29.3682 57.0131 29.3924C56.3889 26.7128 56.698 19.6378 56.698 16.6353C56.698 15.9256 57.4737 16.207 58.2271 16.117C58.8579 16.0415 59.4539 16.0054 60.3205 16.0054C60.3205 21.8806 60.1092 26.523 62.9482 31.6471C63.1707 32.0487 63.5487 32.6471 63.8264 32.9738C64.1062 33.303 64.7781 33.8464 65.2028 33.9598C66.6239 32.6118 65.7855 31.6255 66.1924 30.3946L67.2432 28.2828C67.4659 27.8977 67.6054 27.5569 67.8503 27.1577C68.291 26.4397 69.5907 23.4456 69.6127 22.4626C68.2873 22.7714 67.0296 23.7238 66.1916 24.7114C65.425 25.6147 64.9747 26.8874 64.361 27.9206L64.1004 28.29C63.4521 25.5079 62.8403 23.4348 62.8403 20.4151V15.8478H69.4551C71.5316 15.8478 72.9201 16.5134 72.9201 13.9579C71.421 13.6086 69.1599 11.9104 67.7227 11.9104C67.0453 11.9104 66.6678 13.1705 65.9903 13.1705H62.683L62.3412 6.23146C62.3005 5.63955 62.097 5.61666 62.6684 5.44888C63.2501 5.27811 64.2528 5.20241 64.979 5.07183C66.3847 4.81921 70.3236 4.14862 71.6021 3.66274C72.299 3.39785 72.4476 2.71497 72.4476 1.83083C71.7547 1.66936 71.8802 1.42644 70.904 1.53042C68.8788 1.74601 63.4577 2.007 61.7596 1.17699C61.2041 0.905586 61.2343 0.708965 60.5713 0.80495C60.2299 0.854431 59.3756 1.07449 59.3756 1.35835Z" fill="white"/>
<path fillRule="evenodd" clipRule="evenodd" d="M142.69 18.0527C142.69 19.1642 142.89 20.6125 143.004 21.6762C143.126 22.8077 143.4 23.8613 143.7 24.9179C144.313 27.0794 145.211 28.6634 146.4 30.2499C148.513 33.0675 152.618 35.2197 157.495 35.2197C162.906 35.2197 163.911 34.775 168.341 32.9939C169.193 32.6516 169.957 31.9704 170.882 31.7548C170.882 30.4515 170.724 29.781 170.724 28.4474V20.1002C170.724 18.7667 170.882 18.0962 170.882 16.7928C169.983 16.7928 169.793 16.9504 168.834 16.9504H161.905C160.669 16.9504 160.114 16.7928 158.912 16.7928C158.912 23.8926 158.037 21.8326 162.692 21.8326H165.37V28.6049C164.249 28.8659 162.819 30.3373 158.597 30.3373C154.691 30.3373 152.542 29.1764 150.855 26.8979C147.229 22 146.554 6.08321 157.967 6.08321C160.693 6.08321 162.983 6.84085 164.262 8.92351C164.548 9.38929 165.161 10.505 165.212 11.123C166.231 11.0382 170.041 9.77547 170.882 9.70553C170.836 7.62175 168.347 4.94385 166.897 3.76803C162.906 0.530017 155.4 0.445194 150.827 2.72242C149.214 3.52584 149.071 3.68636 147.924 4.70239C144.858 7.41862 143.718 10.3008 143.004 14.4293C142.854 15.2976 142.69 17.0942 142.69 18.0527Z" fill="white"/>
<path fillRule="evenodd" clipRule="evenodd" d="M133.083 1.98822H120.326C118.593 1.98822 117.473 1.83083 115.759 1.83083C115.759 3.54796 116.048 5.1931 116.079 6.23555C116.096 6.79751 116.074 7.40542 116.074 7.97315V28.7625C116.074 30.7075 115.759 33.4794 115.759 34.9048C117.464 34.5075 132.595 34.7473 135.603 34.7473C136.433 34.7473 138.586 34.831 139.068 35.0622V29.3924C137.947 29.9303 123.587 29.7075 121.586 29.7075V20.1002C125.699 20.1002 131.569 19.9609 135.594 20.2671C136.203 20.3134 136.129 20.4151 136.863 20.4151V14.9029C134.58 15.4349 124.41 15.2178 121.586 15.2178V6.87063C126.463 6.87063 132.911 6.69111 137.64 7.03822C138.137 7.07468 138.209 7.17346 138.753 7.18555V1.67328C137.477 1.67328 134.912 1.98822 133.083 1.98822Z" fill="white"/>
<path fillRule="evenodd" clipRule="evenodd" d="M190.096 7.02815C190.201 8.28154 193.634 17.0828 194.368 19.2932C194.568 19.8952 194.825 20.3829 194.979 21.0452H185.057C185.348 19.7933 185.847 18.7348 186.259 17.5229C186.694 16.245 187.057 15.2853 187.479 14.0174L189.636 7.82766C189.827 7.2484 189.663 7.34587 190.096 7.02815ZM173.875 34.7472H180.647C180.673 33.5593 182.775 27.3999 183.482 25.9276H196.554C196.777 26.8878 198.326 30.4742 198.885 32.731C199.508 35.245 198.92 34.7513 201.436 34.7472C203.011 34.7448 204.586 34.7472 206.161 34.7472C204.425 31.4668 198.29 14.6969 196.555 10.3339C196.017 8.97966 195.516 7.60257 194.979 6.24055C194.643 5.39008 193.636 2.88145 193.561 1.98819H186.317C185.511 5.44701 179.033 21.6523 177.158 26.6912C176.668 28.0078 176.141 29.4414 175.586 30.7891C175.324 31.4264 173.922 34.1767 173.875 34.7472Z" fill="white"/>
<path fillRule="evenodd" clipRule="evenodd" d="M11.8121 17.1077C12.8603 17.1077 13.6861 16.7152 14.6471 16.6352V17.4228C13.5252 17.4228 13.008 17.2653 11.8121 17.2653V17.1077ZM2.5198 10.0204C2.70861 10.7277 4.09482 11.0636 5.09243 11.5428C9.73451 13.7726 10.8326 12.2058 14.8044 11.2805V12.8553C13.4997 12.964 8.31073 14.1908 6.89606 14.5543C5.82739 14.8288 0 16.3642 0 17.4228C0 18.9685 0.87261 20.2578 1.2599 20.2578C2.45581 20.2578 3.11524 20.0273 4.10634 19.9542C6.94293 19.7453 8.67532 19.7042 11.5054 19.9343L14.6471 20.1002V26.4001C13.5123 25.6402 12.8959 24.6675 11.3397 24.6675C10.1244 24.6675 9.69768 25.0929 8.81967 25.2975C9.18724 26.6739 12.8196 29.1481 13.2711 29.6658C13.5177 29.9487 13.9406 30.6511 14.1247 31.017C14.7975 32.3528 14.7994 34.5633 17.0095 34.7472C18.1254 33.0807 17.9544 31.659 17.9544 29.7075C17.9544 26.4248 17.7969 23.6896 17.7969 20.4151L21.8236 20.9559C23.2383 21.1642 24.3987 21.3298 25.7845 21.5621C27.0314 21.7714 28.3112 22.0234 29.5795 22.3346C31.4376 22.7906 32.4516 23.5265 32.9164 23.5651C34.226 21.0902 33.7853 20.9469 32.3543 19.8749C31.7815 19.4458 31.3033 19.0765 30.6604 18.7339C28.8586 17.7735 26.8329 16.734 24.7476 17.6012C24.24 17.8122 23.9288 18.0514 23.7816 18.6827C22.6559 18.6576 19.6068 17.9286 18.1118 17.8953V16.0054C19.1011 15.7749 20.2687 15.6386 21.3909 15.5044C26.5987 14.8822 25.8665 14.8283 31.0382 14.757L31.8621 14.6359C32.324 14.4901 32.2661 14.7767 32.7086 13.4352C32.9466 12.7138 32.9164 12.6459 32.9164 11.753C32.2211 11.591 32.3902 11.3555 31.2795 11.1849C28.1668 10.7068 26.8349 9.39058 25.9867 9.39058C24.6885 9.39058 26.5827 10.9948 26.7741 11.2805C25.7763 11.2805 25.384 11.3622 24.5648 11.4336L18.1118 12.2255C18.1118 8.66959 17.5672 9.90456 20.7672 7.32095C21.2959 6.89423 21.5995 6.54898 22.1157 6.1496C22.6691 5.72176 23.1042 5.36441 23.4667 4.8231C24.4954 5.51192 25.5909 6.53632 26.4592 6.55566C26.8915 4.69939 27.4421 5.48794 25.8304 3.40435C25.5905 3.09389 23.7193 1.04321 23.4667 1.04321C23.0234 1.04321 22.3043 1.22087 22.0236 1.33249C21.6069 1.49823 19.4764 3.54757 19.0205 3.99941C16.55 6.44778 12.7612 8.7025 9.14743 9.08831C8.11373 9.1988 6.97475 9.41142 5.87445 9.5952C5.14507 9.71705 3.30684 10.003 2.5198 10.0204Z" fill="white"/>
<path fillRule="evenodd" clipRule="evenodd" d="M84.2598 7.18555C85.4613 7.18555 86.0159 7.02818 87.2522 7.02818H95.4419C95.4419 10.7703 95.6033 30.6325 95.3295 32.745C95.2547 33.3222 95.1368 34.3073 95.1269 34.7473H101.427C101.401 33.5873 101.112 32.4613 101.112 30.8098V7.02818H109.301C110.538 7.02818 111.092 7.18555 112.294 7.18555V1.67328C111.514 1.67328 111.478 1.77281 110.868 1.82247L106.151 1.98822C100.961 1.98822 90.6627 2.22035 85.6856 1.82227C85.076 1.77354 85.0397 1.67328 84.2598 1.67328V7.18555Z" fill="white"/>
<path fillRule="evenodd" clipRule="evenodd" d="M250.26 5.92563C250.26 9.77583 250.423 30.6186 250.147 32.7449C250.072 33.3222 249.954 34.3073 249.944 34.7472H256.244C256.244 33.5089 255.929 32.0755 255.929 30.3373C255.929 25.6413 255.709 7.28114 256.06 4.00908C256.133 3.32993 256.244 2.54959 256.244 1.98819H249.944C249.97 3.1482 250.26 4.27416 250.26 5.92563Z" fill="white"/>
<path fillRule="evenodd" clipRule="evenodd" d="M273.569 11.4379C271.928 11.4379 270.986 11.3246 269.665 9.98659C267.478 7.76926 268.034 3.63408 271.312 2.25085C276.447 0.0841102 280.341 7.21102 276.163 10.4098C275.547 10.8812 274.562 11.4379 273.569 11.4379ZM267.426 6.71306C267.426 9.7126 270.097 12.3829 273.096 12.3829C278.18 12.3829 280.627 6.15798 277.139 2.67033C273.621 -0.848011 267.426 1.71271 267.426 6.71306Z" fill="white"/>
<path fillRule="evenodd" clipRule="evenodd" d="M297.351 3.87815V9.54797C297.351 10.1079 297.657 10.0205 298.296 10.0205L298.453 5.45316C298.453 7.05924 298.925 8.47429 298.925 10.0205H299.87C299.995 8.51874 300.5 6.97628 300.5 5.29561L300.658 10.0205H301.603V3.40566C299.646 3.40566 300.208 3.12367 299.849 5.27385C299.732 5.97104 299.555 6.65912 299.555 7.50067H299.398C299.398 6.00118 298.925 4.76508 298.925 3.40566C297.797 3.40566 297.351 3.25034 297.351 3.87815Z" fill="white"/>
<path fillRule="evenodd" clipRule="evenodd" d="M273.726 6.0832C273.373 6.16542 273.364 6.24058 272.939 6.24058H272.466V4.50819H273.411C274.271 4.50819 273.949 5.67173 273.726 6.0832ZM271.206 3.87815V9.54797C271.206 10.1442 271.574 10.0205 272.466 10.0205V7.65804C272.466 6.71176 273.728 7.4056 273.853 7.84609C274.282 9.36083 272.923 10.0205 275.144 10.0205C275.144 7.69133 275.354 7.96832 274.514 6.71307C275.754 5.88231 275.559 3.40566 273.254 3.40566C271.811 3.40566 271.206 3.20625 271.206 3.87815Z" fill="white"/>
<path fillRule="evenodd" clipRule="evenodd" d="M333.889 10.0205H334.834V6.0832C334.855 6.11631 334.878 6.13322 334.885 6.18977L335.023 6.52406C335.093 6.72217 335.096 6.74784 335.171 7.00622C335.709 8.86491 335.639 10.0205 336.724 10.0205C337.087 10.0205 337.197 9.91088 337.197 9.54796V3.87814C337.197 3.31822 336.89 3.40565 336.252 3.40565V7.50066C336.231 7.46736 336.208 7.37174 336.201 7.39388L335.602 5.47286C335.41 4.87332 335.144 4.06024 334.992 3.40565H333.889V10.0205Z" fill="white"/>
<path fillRule="evenodd" clipRule="evenodd" d="M357.986 10.0205H358.931V6.0832C358.953 6.11463 358.982 6.12765 358.99 6.18196C358.997 6.23647 359.036 6.2599 359.046 6.28278C359.06 6.31366 359.127 6.45542 359.144 6.50006C359.604 7.73318 359.793 10.0205 360.506 10.0205C361.017 10.0205 361.293 10.0826 361.293 9.54796V3.87814C361.293 3.31822 360.987 3.40565 360.349 3.40565V7.34309L359.973 6.45821C359.859 6.06553 359.812 5.82667 359.699 5.47286C359.507 4.87295 359.241 4.06043 359.089 3.40565H357.986V10.0205Z" fill="white"/>
<path fillRule="evenodd" clipRule="evenodd" d="M344.914 10.0205C347.028 10.0205 345.476 8.79849 346.174 7.34309C346.694 7.55292 346.33 7.21474 346.601 7.86152L347.276 10.0205H348.379C347.364 5.66503 346.233 7.46121 348.379 3.40565H347.276L346.209 5.64606C346.095 5.85179 346.123 5.80362 346.016 5.92565C346.016 3.2522 346.324 3.40565 344.914 3.40565V10.0205Z" fill="white"/>
<path fillRule="evenodd" clipRule="evenodd" d="M354.206 10.0205H355.309C355.309 7.88944 355.066 7.66472 355.781 7.18554C355.853 8.04922 356.373 9.18152 356.569 10.0205H357.671C357.63 9.5236 357.219 8.58682 357.061 8.11061C356.951 7.7769 356.411 6.29359 356.411 6.0832C356.411 5.47566 357.503 4.12889 357.671 3.40565H356.569L355.674 5.34563C355.518 5.68883 355.501 5.70447 355.309 5.92565C355.309 3.2522 355.616 3.40565 354.206 3.40565V10.0205Z" fill="white"/>
<path fillRule="evenodd" clipRule="evenodd" d="M291.366 8.91809H290.893V4.50818C292.249 4.50818 292.153 5.33316 292.153 7.02816C292.153 7.71996 292.015 8.91809 291.366 8.91809ZM289.948 10.0204C291.948 10.0204 293.15 10.12 293.248 6.70411C293.29 5.26229 292.903 3.40564 291.051 3.40564H289.948V10.0204Z" fill="white"/>
<path fillRule="evenodd" clipRule="evenodd" d="M342.709 9.07548C341.507 8.7546 341.936 5.41445 342.03 5.08892L342.552 4.35063C343.765 5.16352 343.354 8.60318 342.709 9.07548ZM340.819 6.71305C340.819 8.12977 341.044 9.72244 342.209 10.0642C344.45 10.7223 344.284 7.17586 344.284 5.92564C344.284 4.02918 343.636 3.40564 342.237 3.40564C341.198 3.40564 340.819 5.5257 340.819 6.71305Z" fill="white"/>
<path fillRule="evenodd" clipRule="evenodd" d="M313.257 3.87816C313.257 6.67401 312.71 9.83409 314.729 10.1172C315.841 10.2731 316.565 9.43619 316.565 8.28809V3.40567H315.62V7.8156C315.62 8.66254 315.537 8.91125 314.832 9.0755C314.514 8.84205 314.36 8.71406 314.36 8.13052V3.40567C313.594 3.40567 313.257 3.29908 313.257 3.87816Z" fill="white"/>
<path fillRule="evenodd" clipRule="evenodd" d="M348.536 8.1305C348.536 10.8665 351.844 10.7757 351.844 8.1305V3.40565C350.666 3.40565 350.719 3.3424 350.728 4.4946L350.753 7.82712C350.755 8.76892 350.85 8.68652 350.269 9.07549C349.054 8.75107 349.481 5.49686 349.481 3.40565H348.536V8.1305Z" fill="white"/>
<path fillRule="evenodd" clipRule="evenodd" d="M303.682 5.14138C303.815 5.37577 303.654 4.91927 303.865 5.5534C303.981 5.9033 303.91 5.6985 303.974 6.07389C304.06 6.56814 304.123 6.7601 304.123 7.34308H303.493L303.682 5.14138ZM301.918 10.0204H303.02L303.207 8.44952L304.438 8.44562C304.438 9.63613 304.538 9.3266 304.595 10.0204H305.698L304.438 3.40564H303.178C302.679 5.54689 302.415 7.88422 301.918 10.0204Z" fill="white"/>
<path fillRule="evenodd" clipRule="evenodd" d="M295.303 5.13824C295.303 5.95021 295.464 6.68218 295.618 7.3431H294.831C294.842 6.84048 295.034 5.56218 295.303 5.13824ZM293.413 10.0205H294.358C294.713 8.49661 294.089 8.44564 295.776 8.44564C295.783 8.78438 295.836 9.19063 295.897 9.42632C296.067 10.0768 295.876 10.0205 297.035 10.0205L296.418 6.5436C295.729 3.12757 296.354 3.40566 294.516 3.40566C294.516 4.91538 293.413 8.50182 293.413 10.0205Z" fill="white"/>
<path fillRule="evenodd" clipRule="evenodd" d="M331.684 5.13822C331.74 5.80658 331.984 6.64737 331.999 7.34308H331.212C331.494 6.75563 331.316 6.26623 331.596 5.36479C331.606 5.33186 331.63 5.27624 331.639 5.2502C331.648 5.22434 331.663 5.17226 331.684 5.13822ZM329.794 10.0204H330.897C330.897 9.18188 331.039 9.13946 331.054 8.44562C332.407 8.44562 332.184 8.37325 332.335 9.05501C332.383 9.2706 332.452 9.78476 332.472 10.0204H333.417C333.417 8.88983 333.104 7.79493 332.903 6.75416C332.755 5.98944 332.332 4.17873 332.314 3.40564H331.054C330.557 5.54187 330.293 7.87938 329.794 10.0204Z" fill="white"/>
<path fillRule="evenodd" clipRule="evenodd" d="M306.013 5.1382C306.013 7.44929 308.06 6.4725 308.06 8.60297C308.06 9.26352 306.987 9.46534 306.958 8.13047H305.855C306.21 12.3985 311.174 9.03528 308.344 6.42935C307.525 5.6758 306.646 5.61404 307.273 4.3506C307.972 4.40883 308.003 4.61363 308.06 5.29557H309.005C309.005 2.57599 306.013 2.91603 306.013 5.1382Z" fill="white"/>
<path fillRule="evenodd" clipRule="evenodd" d="M317.195 4.98066C317.195 7.59365 319.242 6.40501 319.242 8.60299C319.242 9.26354 318.169 9.46537 318.14 8.1305H317.037C317.28 11.0458 320.345 10.6246 320.345 8.1305C320.345 5.78035 318.297 6.71212 318.297 4.82311C318.297 4.22097 318.249 4.76582 318.455 4.35063C319.154 4.40886 319.186 4.61366 319.242 5.2956H320.187C320.187 2.44432 317.195 3.13852 317.195 4.98066Z" fill="white"/>
<path fillRule="evenodd" clipRule="evenodd" d="M364.758 10.0205H365.861C366.092 9.02842 367.121 4.20645 367.121 3.40564C365.905 3.40564 366.1 3.36286 365.961 4.2937C365.917 4.59654 365.799 5.34842 365.748 5.65535C365.597 6.55977 365.388 7.34775 365.388 8.28807H365.231C365.231 7.22721 364.89 5.63582 364.699 4.40978C364.535 3.35301 364.714 3.40564 363.498 3.40564C363.498 4.07494 364.576 9.64023 364.758 10.0205Z" fill="white"/>
<path fillRule="evenodd" clipRule="evenodd" d="M320.817 5.13819C320.817 7.44928 322.865 6.4725 322.865 8.60296C322.865 9.26351 321.792 9.46533 321.762 8.13047H320.66C320.723 10.9514 323.967 10.5982 323.967 8.28804C323.967 7.1909 323.48 6.63936 322.772 6.17599C321.586 5.40122 321.457 4.60042 322.392 4.3506C322.771 4.62832 322.812 4.66571 322.865 5.29556H323.81C323.81 2.62416 320.817 2.83827 320.817 5.13819Z" fill="white"/>
<path fillRule="evenodd" clipRule="evenodd" d="M326.487 4.82312C326.487 8.19563 329.052 6.17902 328.377 9.0755C327.321 9.0755 327.49 9.05391 327.275 8.13052H326.33C326.33 10.1084 327.766 10.412 328.723 9.90179C329.78 9.3389 329.796 7.46048 329.056 6.66396C327.947 5.46879 327.166 6.16879 327.59 4.35065C329.469 4.3925 327.155 5.29562 329.48 5.29562C329.418 2.5232 326.487 3.0673 326.487 4.82312Z" fill="white"/>
<path fillRule="evenodd" clipRule="evenodd" d="M370.901 4.82312C370.901 8.19563 373.465 6.17902 372.791 9.0755C371.734 9.0755 371.903 9.05391 371.688 8.13052H370.743C370.743 10.1064 372.176 10.4128 373.137 9.90179C373.527 9.69457 373.684 9.47486 373.831 9.00647C374.714 6.20132 371.846 6.17306 371.846 5.13824C371.846 4.71282 371.921 4.7039 372.003 4.35065C373.883 4.3925 371.569 5.29562 373.893 5.29562C373.831 2.5232 370.901 3.0673 370.901 4.82312Z" fill="white"/>
<path fillRule="evenodd" clipRule="evenodd" d="M367.593 10.0204H370.271C370.322 9.40863 370.413 9.61008 370.428 8.91809H368.538V7.18553C370.456 7.18553 370.271 7.37304 370.271 6.08319H368.538V4.50818H370.271V3.40564H367.593V10.0204Z" fill="white"/>
<path fillRule="evenodd" clipRule="evenodd" d="M309.478 6.71309C309.478 11.6632 312.785 10.6059 312.785 7.97316H311.84C311.79 8.57865 311.739 8.80337 311.367 9.07552C310.263 8.78087 310.441 6.07542 310.72 5.1204C310.909 4.46971 310.853 4.62299 311.367 4.35066C311.725 4.69033 311.784 4.78426 311.84 5.45318H312.785C312.785 2.61343 309.478 2.25796 309.478 6.71309Z" fill="white"/>
<path fillRule="evenodd" clipRule="evenodd" d="M337.512 4.50815H338.614V10.0204C340.118 10.0204 339.717 10.5803 339.717 4.50815H340.819C340.819 3.11153 341.2 3.40562 337.512 3.40562V4.50815Z" fill="white"/>
<path fillRule="evenodd" clipRule="evenodd" d="M362.081 10.0204H363.026V3.40564H362.081V10.0204Z" fill="white"/>
</svg>
