<svg width="480" height="501" viewBox="0 0 480 501" fill="none" xmlns="http://www.w3.org/2000/svg">
<g clipPath="url(#clip0_2002_3136)">
<path fillRule="evenodd" clipRule="evenodd" d="M-0.000244141 208.559V212.987C9.23095 201.962 12.9279 184.132 14.3004 169.416C15.1416 160.375 15.8278 151.379 16.6912 142.199C17.5324 133.157 16.4034 123.055 22.9117 119.433C33.9139 121.486 30.9254 157.122 38.3856 167.986C43.3222 175.183 46.9527 176.059 47.661 189.852C48.0817 198.202 45.5802 214.832 49.1 221.291C50.8931 217.716 49.587 198.156 49.5427 192.136C49.4542 178.62 47.5946 177.189 41.839 168.978C32.2314 155.323 34.6223 105.686 19.569 119.203C14.6988 123.585 13.1714 153.432 12.7508 160.259C11.666 177.766 9.69583 196.887 -0.000244141 208.559Z" fill="#151515"/>
<path fillRule="evenodd" clipRule="evenodd" d="M6.10352e-05 112.445V120.148C6.48625 107.508 -1.21748 112.721 12.6182 97.2674C19.6136 89.4482 24.1738 85.7808 23.554 70.4883C23.0448 57.8945 22.5136 46.8231 22.3586 34.114C22.2036 20.9436 17.5991 15.9845 19.835 6.10352e-05H18.0861C15.5182 15.3386 18.9716 17.7144 20.0563 31.0693C20.8975 41.4719 20.7204 54.7115 21.2075 65.6446C22.27 90.3247 14.5884 91.7086 6.3977 101.004C3.1214 104.741 2.54583 108.477 6.10352e-05 112.421L6.10352e-05 112.445Z" fill="#151515"/>
<path fillRule="evenodd" clipRule="evenodd" d="M-0.000140674 265.346C6.75169 273.073 5.88834 316.205 6.2204 328.476C6.50818 339.455 4.62652 350.389 6.79597 361.206C8.92113 371.724 9.43029 372.093 13.1051 380.72L16.3371 386.302C17.2668 383.972 11.3119 370.432 8.78831 361.345C4.58225 346.144 13.1051 273.857 -0.0222778 261.702V265.323L-0.000140674 265.346Z" fill="#151515"/>
<path fillRule="evenodd" clipRule="evenodd" d="M-0.000244141 90.187V93.693C0.221127 93.4854 0.531048 92.8626 0.641733 93.0702L9.87293 77.2011C12.463 69.774 11.6218 61.1706 10.847 53.4898C9.03172 35.4986 12.0202 18.4532 10.8248 0.0238647H8.74393C9.67369 17.6921 7.19433 34.3684 8.65539 51.2063C9.65156 62.8313 11.1347 72.1959 5.24626 82.7599L0.0440302 90.2101L-0.000244141 90.187Z" fill="#151515"/>
<path fillRule="evenodd" clipRule="evenodd" d="M-0.000244141 179.173V184.663C8.47829 170.477 6.86227 154.585 8.43401 137.517C10.1164 119.387 10.8691 99.4124 30.7925 107.186C29.5529 103.057 28.3132 101.811 22.3804 102.941C-2.56816 107.624 13.0164 160.513 -0.000244141 179.173Z" fill="#151515"/>
<path fillRule="evenodd" clipRule="evenodd" d="M-0.000244141 380.673C7.37143 390.407 2.92186 436.377 4.09513 453.468C5.31267 451.9 5.20199 455.936 5.91038 445.349L5.95465 413.496C5.31267 397.557 8.52256 388.031 0.021893 374.861V380.673H-0.000244141Z" fill="#151515"/>
<path fillRule="evenodd" clipRule="evenodd" d="M-0.000244141 470.006C2.1692 474.181 1.26157 474.689 2.19133 479.463C3.23178 478.541 4.98062 480.086 3.09896 471.99C2.23561 468.323 1.92569 467.169 0.021893 464.793V470.006H-0.000244141Z" fill="#151515"/>
<path fillRule="evenodd" clipRule="evenodd" d="M109.778 -0.000982316H107.232C104.974 10.4016 109.911 11.6932 104.111 26.7089C100.812 35.2432 95.3446 39.418 94.5919 49.2901C93.3301 65.6205 87.508 95.9286 89.8545 110.898C92.6438 128.82 107.476 122.546 103.402 163.718C101.078 187.107 99.1743 202.215 101.1 226.272C104.155 264.653 108.848 241.472 116.286 276.67C118.766 288.387 120.537 292.77 119.54 305.502C118.611 317.358 121.909 325.615 121.422 336.456C120.404 359.314 123.06 369.117 118.854 398.733C116.973 412.088 115.334 431.624 118.345 445.118C119.585 450.677 121.909 453.491 126.159 455.105C123.769 447.886 121.887 452.614 120.027 444.495C115.799 426.066 124.389 380.211 124.123 351.172C124.056 344.598 122.44 344.091 122.905 337.309C123.636 326.469 120.227 318.58 121.134 306.909C122.175 293.554 120.337 289.218 118.057 277.085C110.996 239.719 100.06 258.402 102.185 195.526C102.539 184.731 104.399 175.805 105.328 165.587C109.202 123.492 96.6949 127.944 92.5331 112.951C88.7255 99.2731 95.7209 66.866 96.3186 51.1353C96.7613 39.4411 108.627 30.2379 109.557 14.761C110.021 7.1032 106.723 7.79517 109.8 -0.0240479L109.778 -0.000982316Z" fill="#151515"/>
<path fillRule="evenodd" clipRule="evenodd" d="M390.544 148.911C378.634 165.68 377.505 214.14 372.17 225.258C369.757 230.263 363.359 234.461 356.342 231.14C351.604 228.902 348.394 223.92 347.398 216.862C345.472 203.138 343.967 186.393 342.927 172.415C340.292 137.009 326.08 132.511 338.521 93.5076C344.144 75.8394 345.649 73.925 345.495 53.4659C345.406 41.1258 351.383 26.1794 357.515 17.2991C376.132 17.2761 376.243 67.3283 377.261 80.7755C380.626 125.292 393.776 113.621 390.544 148.98V148.911ZM390.544 148.911C400.926 133.319 381.069 116.458 378.944 79.553C377.881 61.1006 378.058 40.1571 369.58 24.2188C365.927 17.3453 366.148 13.6548 356.541 14.9926C351.449 19.6518 343.613 39.8803 343.546 49.983C343.414 72.518 343.237 72.0336 336.95 92.0084C323.379 135.233 338.831 136.502 341.156 174.145C341.953 187.084 343.679 205.537 345.649 218.177C349.059 239.974 367.078 235.084 371.993 228.441C377.151 221.452 379.209 186.9 384.876 168.078C386.736 161.92 389.902 155.023 390.521 148.934L390.544 148.911Z" fill="#151515"/>
<path fillRule="evenodd" clipRule="evenodd" d="M64.3746 188.768C62.8028 192.297 62.0723 210.773 60.9876 217.047C59.3494 226.457 55.2098 231.024 51.9777 239.466C41.1748 267.791 48.303 313.691 27.7376 308.755C8.98738 304.257 17.2445 273.811 12.5515 260.894C9.25303 251.806 5.0027 250.33 4.91415 237.621C4.78133 215.893 14.8537 207.959 18.7056 188.722C23.5536 164.411 42.503 170.662 40.0901 200.07C37.9871 225.673 44.4068 272.981 34.6222 287.258C28.4017 296.346 20.1445 293.117 20.1667 279.116C14.2339 285.505 23.5094 298.906 32.6077 292.033C49.0556 279.623 39.2046 229.364 41.5954 203.692C42.4145 194.742 43.1229 183.348 37.6107 176.82C30.7261 168.632 20.6537 172.415 17.9751 182.379C15.3408 192.182 14.8316 198.364 10.4484 207.474C0.0439739 229.087 0.132522 240.85 9.93928 260.156C15.5843 271.274 11.0683 278.747 12.5736 289.242C16.2041 314.637 38.2748 318.904 43.1007 298.283C47.5946 279.093 46.532 258.149 53.1067 241.635C56.3166 233.585 61.1204 227.011 62.6479 218.707C64.1753 210.381 67.3631 195.411 64.3967 188.722L64.3746 188.768Z" fill="#151515"/>
<path fillRule="evenodd" clipRule="evenodd" d="M186.904 0H184.934C183.605 5.83558 180.241 10.564 176.61 15.7999C172.293 22.0045 167.556 24.0804 159.321 42.1638C153.322 55.3111 156.864 91.8008 155.668 109.123C154.938 119.849 154.96 131.52 153.986 142.13C152.038 162.866 155.358 175.344 143.449 192.689C133.93 206.552 134.195 221.867 126.558 219.469C118.921 212.987 121.024 197.718 120.714 186.416C120.537 180.026 118.633 175.805 118.478 169.416C118.124 155.254 119.275 128.29 122.618 115.143C132.159 77.7539 128.882 96.9675 133.133 87.0724C124.388 89.9786 125.695 94.4764 123.437 104.741C121.422 113.99 119.297 117.957 118.589 128.337C117.437 145.013 114.383 163.327 118.102 180.28C120.182 189.76 115.202 228.418 130.543 220.299C135.856 217.508 136.962 208.858 140.106 201.639L150.378 183.902C156.31 171.746 155.137 149.234 155.934 134.126C156.864 116.527 157.838 100.658 157.904 82.9898C157.993 57.1103 154.03 48.6913 173.4 22.6734C177.429 17.2761 183.495 13.009 186.86 0L186.904 0Z" fill="#151515"/>
<path fillRule="evenodd" clipRule="evenodd" d="M427.646 322.687C422.842 312.077 428.708 284.329 424.059 275.495C420.34 268.414 418.968 271.897 416.754 256.996C415.537 248.762 415.227 240.135 414.43 232.039C413.766 225.327 412.127 214.44 411.995 208.074C411.818 198.686 413.766 190.291 412.614 180.742C409.892 157.953 423.063 143.721 429.904 146.489C434.11 148.173 440.729 155.231 441.813 160.49C443.429 168.355 438.116 178.089 441.548 185.539C443.983 190.821 446.993 189.322 445.112 205.791C443.252 222.213 442.057 266.914 437.585 278.632C427.535 304.949 433.446 316.782 427.646 322.687ZM427.646 325.731C435.349 318.766 429.107 305.019 438.36 281.63C443.474 268.69 441.636 273.28 442.522 259.164L447.547 194.373C446.75 188.215 444.315 187.846 443.075 183.832C440.596 175.69 445.776 166.902 443.341 158.76C441.636 153.04 435.017 145.797 429.771 144.275C418.614 141.023 408.497 163.442 409.914 177.328C411.021 188.076 410.379 194.12 410.047 204.614L414.563 255.589C415.847 268.045 417.44 267.791 422.156 276.164C427.867 286.336 419.654 318.766 427.601 325.731H427.646Z" fill="#151515"/>
<path fillRule="evenodd" clipRule="evenodd" d="M152.813 237.575C153.764 249.546 156.819 295.216 159.365 303.312C168.928 333.666 179.311 329.491 175.614 355.694C172.825 375.507 170.611 403.001 170.943 422.86C171.098 431.994 169.15 485.899 166.361 490.512C153.942 495.309 160.029 466.616 160.339 458.151C160.738 447.541 159.144 434.462 161.003 426.666C162.752 419.285 163.106 420.646 161.07 418.293C155.181 439.606 159.365 438.499 157.882 463.686C157.484 470.422 155.624 479.602 157.085 486.429C158.812 494.456 167.844 497.339 169.504 488.32C171.607 476.926 173.644 395.758 175.437 371.678C176.632 355.624 182.432 343.515 173.688 328.315C169.172 320.449 170.677 325.916 165.054 312.307C159.919 299.852 156.443 284.975 157.484 272.45C158.192 263.824 155.845 258.542 154.871 251.068C154.074 244.887 155.58 231.855 153.455 227.818L152.835 237.552L152.813 237.575Z" fill="#151515"/>
<path fillRule="evenodd" clipRule="evenodd" d="M313.086 429.572C314.281 426.343 314.392 413.749 315.432 408.145C319.262 387.547 322.959 368.61 331.238 349.604C335.975 338.717 340.491 322.71 340.978 310.324C341.421 298.722 339.097 275.287 337.259 263.639C330.84 222.836 323.114 222.144 320.435 181.895C319.35 165.449 321.852 150.71 319.926 134.057C318.111 118.441 314.79 111.407 318.598 96.4831C319.771 91.8931 318.73 92.9079 318.354 92.3774C310.518 101.88 317.004 122.27 318.111 134.264C320.546 160.628 314.967 196.98 325.947 225.189C334.581 247.378 339.694 284.928 338.787 310.301C337.901 335.142 323.158 359.038 317.734 386.878C315.742 397.096 308.946 420.877 313.063 429.526L313.086 429.572Z" fill="#151515"/>
<path fillRule="evenodd" clipRule="evenodd" d="M94.8574 339.363C93.02 349.258 93.4849 368.864 75.3989 364.897C60.8769 361.714 68.315 339.709 65.902 328.13C63.312 315.79 54.9884 308.317 56.5159 292.102C57.3128 283.614 60.7219 281.953 63.6219 276.579C67.7615 268.852 71.0378 253.26 76.9706 243.849C90.3857 222.582 86.7552 217.231 88.172 186.254C88.8361 171.538 86.3346 157.376 86.556 143.26C86.6888 134.38 89.5002 132.027 86.2461 122.755C84.298 117.219 83.2133 109.561 81.0217 104.833C80.424 105.617 78.3431 103.034 81.3095 112.952C88.5926 137.309 84.785 126.192 84.5858 144.367C84.4087 159.475 86.8438 173.591 85.9804 189.829C85.3606 201.708 85.9804 221.591 81.5751 231.624C75.421 245.671 76.1073 235.983 66.4555 263.616C58.8845 285.298 53.9037 281.953 54.6563 297.845C55.409 313.322 64.3303 321.741 64.5295 334.127C64.7509 347.874 60.5006 365.981 77.5462 367.319C92.5552 368.518 94.6582 356.178 95.6765 344.945L94.9017 339.34L94.8574 339.363Z" fill="#151515"/>
<path fillRule="evenodd" clipRule="evenodd" d="M456.977 188.699L456.512 188.399C453.878 191.282 450.557 233.262 451 239.835C453.502 276.648 452.837 260.502 444.071 288.711C439.467 303.565 437.054 322.272 437.054 338.717C437.054 348.105 440.64 384.987 434.176 389.116C426.826 387.224 431.586 368.841 425.1 355.071C418.171 340.355 417.706 336.595 419.211 319.504C423.683 268.275 413.92 284.352 410.954 264.446C409.692 255.889 410.91 246.109 409.072 242.926C407.014 247.609 408.054 257.342 408.607 263.478C409.404 272.45 411.264 273.442 414.717 279.37C420.407 289.126 418.326 308.04 417.241 319.066C415.271 339.179 415.204 338.764 423.063 355.901C430.59 372.301 423.971 387.293 433.069 391.814C441.105 388.608 439.821 377.421 439.245 369.395C432.98 284.029 457.752 282.322 453.258 242.811C451.908 230.886 455.184 201.408 456.955 188.699H456.977Z" fill="#151515"/>
<path fillRule="evenodd" clipRule="evenodd" d="M261.86 187.592L259.58 188.791C259.359 188.884 259.049 189.045 258.805 189.137C258.562 189.207 258.252 189.345 258.031 189.391C254.179 190.175 252.673 187.707 251.323 181.549C248.977 170.916 245.899 133.388 246.851 124.046C248.246 110.484 249.353 99.2049 250.061 85.2733C250.57 75.1475 250.637 57.8714 258.562 53.9503C264.583 58.1021 264.14 59.0247 265.447 67.9049C266.376 74.2249 274.191 93.7383 274.633 98.9742C276.847 125.315 273.283 122.086 272.132 136.894C271.623 143.352 272.043 150.157 271.269 156.477C269.741 169.14 263.543 177.651 261.86 187.638V187.592ZM261.86 187.592L265.491 181.157C276.36 151.425 271.667 163.096 274.235 136.525C274.811 130.505 276.692 123.424 276.914 118.188C277.556 103.426 276.161 94.1305 271.556 80.9139C267.173 68.3432 268.391 55.8417 258.54 51.367C246.608 50.1676 247.449 105.548 245.235 121.509C242.756 139.408 245.789 144.367 247.051 160.282C247.98 172.184 246.741 189.253 257.455 192.32C260.599 190.221 260.399 190.867 261.86 187.569V187.592Z" fill="#151515"/>
<path fillRule="evenodd" clipRule="evenodd" d="M349.966 0H348.262C345.517 10.5871 340.425 19.9517 337.06 31.8766C333.208 45.4852 336.219 56.7873 332.699 71.6415C324.73 105.179 321.453 111.706 325.46 148.888C328.272 174.952 328.095 200.416 335.422 225.65C338.898 237.621 341.399 247.978 343.303 260.525C344.653 269.498 346.048 293.67 348.084 299.667C350.342 296 346.557 268.068 345.539 261.817C343.369 248.462 341.178 238.428 337.348 225.927C331.415 206.621 323.424 129.859 326.191 108.016C327.807 95.2607 332.411 83.774 334.603 72.3335C337.414 57.7561 335.223 45.5314 338.809 32.4301C341.864 21.2203 348.107 9.61833 349.944 0L349.966 0Z" fill="#151515"/>
<path fillRule="evenodd" clipRule="evenodd" d="M253.492 238.728C234.322 238.359 247.515 201.593 242.579 177.028C239.922 163.788 235.694 160.859 237.709 145.451L240.299 120.54C240.631 116.804 241.472 114.682 240.011 112.56C238.683 115.581 235.428 145.705 235.074 151.148C234.41 162.058 241.118 174.214 241.671 187.523C242.225 200.809 239.369 216.562 241.627 229.179C244.04 242.765 256.857 247.101 259.536 228.326C266.42 180.303 274.168 202.746 278.352 161.39C279.016 154.931 281.031 150.018 281.806 143.606C283.045 133.227 285.658 86.7725 283.643 81.9518L282.359 101.627C281.806 109.446 281.23 117.15 281.097 124.992C280.81 141.692 277.002 151.933 276.271 167.087C275.275 187.292 260.93 198.479 258.65 220.506C257.721 229.41 257.964 233.1 253.514 238.682L253.492 238.728Z" fill="#151515"/>
<path fillRule="evenodd" clipRule="evenodd" d="M337.636 500.13H339.783C343.414 488.574 347.088 487.559 346.557 471.713C346.181 460.203 343.546 450.7 344.011 438.914C344.343 430.68 346.712 413.611 345.384 406.276C344.343 400.51 339.761 383.603 336.662 380.097C320.967 376.429 322.737 415.318 318.974 426.781C314.945 439.098 316.451 444.357 316.561 456.974C316.628 465.024 310.983 480.317 315.255 486.198C318.863 479.371 316.362 441.659 320.391 429.25C323.778 418.87 323.269 412.758 325.084 402.24C327.807 386.325 328.205 382.104 336.153 381.804C348.085 427.889 343.414 391.261 341.975 440.99C341.687 451.346 344.211 462.072 344.343 472.797C344.587 489.727 340.956 488.09 337.614 500.084L337.636 500.13Z" fill="#151515"/>
<path fillRule="evenodd" clipRule="evenodd" d="M90.1422 0H88.4819C84.3644 31.4383 85.2277 13.7701 80.6896 28.3937C74.3584 48.7144 78.2324 67.0515 78.011 80.7524C77.8339 92.1237 69.7317 103.38 73.0966 130.712C78.9629 178.527 71.7683 167.363 70.3073 197.741C69.5768 213.172 71.6355 217.07 66.3226 231.716C62.8471 241.242 55.9181 247.193 53.793 255.52C57.0914 254.597 55.3868 255.174 57.6891 251.068C58.796 249.131 59.9028 247.401 61.1204 245.509C73.7386 225.535 70.8386 222.998 72.0118 200.047C73.6943 166.856 80.756 181.341 75.266 131.981C73.7828 118.603 73.9599 110.968 76.6607 97.9362C77.7011 92.8849 79.4278 86.934 79.6492 81.8365C80.1583 69.6579 76.0187 49.983 82.1507 29.8699C85.4491 19.0752 88.9468 24.8646 90.1865 0L90.1422 0Z" fill="#151515"/>
<path fillRule="evenodd" clipRule="evenodd" d="M396.011 307.51C405.132 315.583 403.649 355.14 404.246 369.025C404.866 383.949 412.703 400.994 407.766 415.756C406.438 419.723 402.453 424.152 397.849 422.076C391.296 419.124 388.064 403.37 386.116 399.08C381.357 388.631 385.054 379.52 386.78 368.749C389.902 349.374 385.076 310.831 396.011 307.487V307.51ZM394.927 305.249C382.552 312.077 386.935 353.548 384.832 369.049C383.128 381.596 378.833 388.539 384.478 400.694C386.891 405.907 389.902 422.376 398.38 424.314C408.718 426.689 411.485 410.52 411.131 401.225C410.71 390.592 407.036 381.02 406.261 369.418C405.309 355.232 407.833 309.263 394.905 305.226L394.927 305.249Z" fill="#151515"/>
<path fillRule="evenodd" clipRule="evenodd" d="M368.694 500.13H370.775C369.447 489.935 372.347 478.264 371.882 467.123C371.439 456.467 369.58 446.318 369.58 435.339C369.58 422.722 371.616 416.748 365.905 405.377C362.097 397.811 356.386 392.668 356.12 381.758C355.855 371.101 357.98 360.837 357.116 348.958C356.076 334.658 357.249 331.359 362.186 320.496C366.68 310.6 364.245 300.29 363.669 289.011L361.345 267.122C361.256 262.094 361.876 261.425 359.153 258.196C359.773 265.231 359.463 268.483 360.725 275.426C361.61 280.246 361.787 285.943 362.075 290.949C364.887 340.263 353.53 308.179 355.124 347.851C355.611 360.353 354.261 369.325 354.106 380.789C353.951 391.307 359.552 398.526 363.381 405.677C369.403 416.956 367.964 422.33 367.676 435.362C367.432 446.226 369.58 456.536 370.288 467.146C371.041 478.541 367.676 488.92 368.716 500.13H368.694Z" fill="#151515"/>
<path fillRule="evenodd" clipRule="evenodd" d="M216.147 429.25C218.316 426.251 216.767 403.301 215.97 397.927C214 384.871 210.989 381.204 213.358 366.696C218.206 336.849 210.015 316.321 225.732 311.269C229.053 326.493 227.437 328.338 226.773 343.284C226.109 358.115 226.507 397.488 232.883 409.759C236.38 416.517 241.959 417.209 243.619 425.628L244.571 430.61C244.704 430.979 244.859 431.256 244.992 431.579L246.032 433.447C245.899 414.511 240.254 419.724 234.432 408.237C227.592 394.767 227.99 356.732 228.721 341.001C229.164 331.59 232.263 316.459 225.821 309.193C210.414 311.177 213.756 337.356 213.557 349.005C213.181 369.925 206.916 362.267 213.867 395.62C216.014 405.884 213.203 418.547 216.169 429.273L216.147 429.25Z" fill="#151515"/>
<path fillRule="evenodd" clipRule="evenodd" d="M401.457 485.437C396.631 486.96 396.742 488.367 390.366 488.343C379.497 479.44 382.242 448.901 382.198 433.032C382.176 421.015 382.109 417.486 377.04 407.407C366.547 386.578 371.86 380.927 377.239 356.685C380.006 344.207 378.036 339.502 376.796 327.692C374.428 304.949 384.345 294.247 389.348 276.971C385.851 278.378 386.227 278.77 383.438 286.981C378.944 300.198 373.786 309.24 374.605 325.016C375.18 336.042 378.368 342.431 376.088 354.333C371.616 377.744 363.492 384.064 373.896 406.023C379.187 417.186 380.073 418.524 380.272 433.102C380.56 452.961 376.42 494.594 395.724 489.889C401.634 488.459 401.147 486.544 401.457 485.414V485.437Z" fill="#151515"/>
<path fillRule="evenodd" clipRule="evenodd" d="M379.896 126.007C386.205 147.85 379.076 148.081 373.675 166.625C369.978 179.335 369.757 201.178 358.887 205.076C349.324 200.578 349.391 185.124 349.59 172.761C350.099 141.899 334.094 134.91 343.701 102.319C346.491 92.8618 354.106 72.3566 350.187 68.5046C346.712 82.5054 337.414 114.567 338.588 125.822C339.584 135.279 342.926 144.875 345.649 153.478C349.457 165.518 344.852 218.338 362.009 205.814C371.506 198.871 369.58 178.827 380.228 154.078C382.618 148.519 388.595 129.282 379.873 126.007H379.896Z" fill="#151515"/>
<path fillRule="evenodd" clipRule="evenodd" d="M175.127 68.3201C177.518 66.1289 175.437 68.6661 176.898 66.0828C182.521 56.1185 175.857 34.2754 196.467 33.1222C201.072 43.4324 215.483 57.6408 213.358 82.8284C212.694 90.7398 212.162 95.6297 215.66 102.549C223.939 118.926 217.032 145.151 217.431 167.064C217.586 175.436 219.003 181.226 218.56 190.221C219.622 189.091 221.637 191.79 220.685 179.519C218.184 147.481 225.666 119.087 217.874 102.619C211.41 88.9638 219.622 63.8916 206.34 45.2777C203.595 41.4257 199.854 34.6445 196.378 31.0001C187.944 31.1385 181.502 36.4667 179.621 43.8015C178.691 47.4228 174.928 67.1899 175.127 68.274V68.3201Z" fill="#151515"/>
<path fillRule="evenodd" clipRule="evenodd" d="M174.02 229.779C174.02 233.585 172.957 232.893 176.145 232.893C175.614 202.562 175.171 175.575 176.344 145.082C177.274 121.302 175.946 129.974 179.112 104.879C180.794 91.501 181.06 73.5329 189.826 71.7338C198.017 82.6207 189.228 110.668 199.566 120.033C199.101 112.721 196.046 105.732 195.958 95.4682C195.914 91.6163 195.914 72.2874 191.221 69.9116C179.289 67.2822 179.776 89.8864 178.071 100.289C174.839 120.31 173.223 165.195 173.201 186.416C173.179 199.217 175.658 218.015 174.02 229.779Z" fill="#151515"/>
<path fillRule="evenodd" clipRule="evenodd" d="M280.743 264.838C280.943 275.287 279.349 285.528 279.459 296.669C279.57 308.409 281.341 317.935 281.806 328.891C282.426 343.031 276.471 385.333 292.565 387.409C310.54 389.738 314.37 360.145 318.067 345.106C322.472 327.161 336.861 313.253 333.917 292.102C330.663 296.3 334.05 304.211 327.608 318.65C323.712 327.392 320.015 332.213 317.314 341.97C313.462 355.901 310.053 387.478 293.627 385.217C276.891 382.911 285.149 342.685 284.086 328.453C283.245 317.197 281.784 308.455 281.474 296.692C281.341 291.41 280.765 284.675 281.12 279.623C281.562 273.465 282.913 270.397 282.404 263.247L281.562 258.495L280.721 264.862L280.743 264.838Z" fill="#151515"/>
<path fillRule="evenodd" clipRule="evenodd" d="M137.494 244.01L135.922 241.727C131.185 272.611 130.41 246.201 132.646 288.019L128.794 364.089C127.466 371.909 126.536 380.558 126.093 388.631C125.628 397.165 124.787 404.754 124.92 413.772C125.008 419.977 123.304 436.469 124.344 438.868C127.289 434.762 127.111 420.392 126.912 414.926C126.58 405.884 127.399 399.287 128.019 390.476C129.259 373.223 132.181 359.914 132.247 342.154C132.314 325.754 135.391 308.248 134.616 292.171C134.217 283.89 133.022 275.149 133.044 267.122C133.088 257.527 136.409 253.144 137.449 244.033L137.494 244.01Z" fill="#151515"/>
<path fillRule="evenodd" clipRule="evenodd" d="M250.438 500.13H251.987C252.629 487.605 257.964 426.274 251.345 416.725C250.681 415.779 250.482 415.664 249.84 414.857C239.081 401.363 237.244 402.032 238.041 383.026C238.395 374.33 238.417 365.842 239.258 356.916C240.963 338.763 236.735 322.894 236.403 305.757L234.521 304.949C235.628 321.81 237.93 338.394 237.244 355.14C236.801 366.142 232.905 396.52 238.771 404.777C252.651 424.267 252.009 413.242 252.585 445.557C252.917 463.709 250.858 481.885 250.438 500.107V500.13Z" fill="#151515"/>
<path fillRule="evenodd" clipRule="evenodd" d="M143.404 395.874C139.397 386.809 140.349 325.87 142.408 311.892C144.024 300.774 154.628 300.244 156.709 310.485C162.951 341.116 167.932 323.148 166.405 359.984C165.453 382.957 156.797 381.412 151.816 390.061C149.16 394.674 149.138 396.289 143.426 395.874H143.404ZM146.681 302.228C139.265 304.649 139.884 314.498 139.309 327.323C138.8 338.441 139.951 348.313 139.862 359.153C139.796 368.449 134.262 398.019 146.26 398.203C150.931 398.272 149.78 396.22 154.185 390.223C162.464 378.967 171.917 375.784 167.954 340.955C166.67 329.699 162.243 326.516 160.074 317.474C157.749 307.786 158.48 298.33 146.658 302.205L146.681 302.228Z" fill="#151515"/>
<path fillRule="evenodd" clipRule="evenodd" d="M287.872 272.796L289.355 276.141C291.059 257.988 295.575 239.951 297.833 222.675C299.604 209.204 292.432 173.176 299.914 165.288C311.226 166.21 310.407 209.504 313.064 225.097C314.193 231.739 316.871 240.228 317.093 246.317C319.306 246.317 318.465 246.778 318.709 243.987C315.299 220.945 314.104 226.25 311.89 195.55C311.204 186.162 310.562 180.073 308.038 171.331C306.622 166.464 306.622 163.581 302.172 163.004C296.793 162.312 295.996 166.187 295.442 171.4C293.583 188.791 297.789 206.437 295.597 223.874C293.539 240.343 289.001 256.42 287.916 272.773L287.872 272.796Z" fill="#151515"/>
<path fillRule="evenodd" clipRule="evenodd" d="M88.3714 324.947C87.7294 325.847 83.4126 345.683 75.6425 338.394C72.5433 335.35 74.2479 322.018 73.0967 316.021C71.4143 307.141 68.138 304.788 69.8868 294.547C71.0601 287.719 73.2517 281.007 74.6463 274.318C76.5944 265.023 73.9379 257.919 82.9035 256.419C83.7226 257.434 83.5897 257.204 84.4088 258.611C94.614 275.979 96.3186 278.678 96.3629 298.906C96.385 305.826 96.0751 315.49 99.2628 320.888C99.3514 320.657 99.4842 320.034 99.5064 320.173C99.5285 320.311 99.6835 319.596 99.7056 319.434L99.0415 312.93C96.1636 294.754 102.03 285.321 91.8248 268.021C89.2126 263.593 87.0653 257.688 83.9882 254.482C71.1044 253.536 74.425 266.061 71.5471 278.078C62.6701 315.144 70.883 300.544 72.2555 323.863C72.5433 328.914 70.1304 336.918 73.5837 340.516C80.1585 347.39 92.4889 332.466 88.3492 324.924L88.3714 324.947Z" fill="#151515"/>
<path fillRule="evenodd" clipRule="evenodd" d="M204.171 234.484L204.923 235.983C220.663 188.722 204.171 210.173 213.092 164.111C216.014 149.049 211.232 128.152 208.288 113.921C206.606 105.848 208.842 96.6677 208.952 88.5947C209.174 72.9332 206.274 50.3751 190.468 52.7509L195.072 54.7345C213.845 62.6229 203.418 103.818 206.429 115.558C218.161 161.297 207.071 169.532 208.443 188.584C209.196 199.032 211.631 201.062 209.594 212.803C208.377 219.838 204.547 229.225 204.149 234.461L204.171 234.484Z" fill="#151515"/>
<path fillRule="evenodd" clipRule="evenodd" d="M36.3271 500.13H38.3194C39.4042 485.299 39.6034 469.568 39.7805 454.691C39.9133 442.974 36.5485 415.203 53.7933 421.407C66.7657 426.067 59.9696 445.396 61.3642 459.12C63.3123 478.448 65.6146 482.024 57.623 500.13H59.7925C67.629 479.925 65.3268 479.279 63.4672 458.082C62.1169 442.904 69.1565 423.691 54.3689 419.239C34.534 413.288 37.8988 442.812 37.8103 452.407C37.6553 468.069 37.611 484.399 36.3271 500.107V500.13Z" fill="#151515"/>
<path fillRule="evenodd" clipRule="evenodd" d="M81.2433 0H79.0738C76.7716 22.9502 71.0159 10.9792 68.0274 35.3595C66.8098 45.3007 67.2083 78.2383 66.4999 82.9667C58.6634 134.864 66.4999 126.192 64.8396 149.234C64.2419 157.607 63.1794 164.48 63.4229 172.968C67.9831 166.602 67.2305 138.555 65.7473 129.444C63.0023 112.606 66.035 99.7123 68.4259 83.8432C69.8648 74.2479 67.7175 69.0582 68.8907 60.4317C71.4587 41.7486 66.035 34.7828 75.7311 18.66C78.5425 14.0008 80.2471 6.43528 81.2433 0Z" fill="#151515"/>
<path fillRule="evenodd" clipRule="evenodd" d="M109.092 286.105C116.441 273.995 93.4408 254.344 93.2858 218.246C93.2194 203.069 98.9308 146.42 91.6255 136.709C89.766 140.261 92.179 149.349 92.5553 154.539C95.1896 189.852 91.6698 187.546 91.0278 217.093C90.7179 230.748 93.1309 242.027 98.2888 253.306C100.259 257.619 102.473 263.039 104.642 268.229C107.232 274.434 107.631 282.668 109.047 286.082L109.092 286.105Z" fill="#151515"/>
<path fillRule="evenodd" clipRule="evenodd" d="M277.888 498.031C278.087 497.777 278.33 497.039 278.397 497.201C278.463 497.362 278.773 496.578 278.862 496.324C279.393 494.779 279.282 496.117 279.703 493.349L280.123 474.804C280.721 466.385 281.939 461.103 283.643 453.422C288.049 433.724 281.607 427.474 276.294 412.296C274.169 406.184 273.637 375.046 273.172 365.889C272.685 356.224 275.253 343.423 276.117 331.936C276.382 328.407 276.825 322.387 274.899 319.388C274.611 320.08 270.981 359.707 271.114 363.72C271.357 371.793 272.597 379.29 272.53 387.593C272.464 397.281 271.335 401.709 274.058 411.189C278.441 426.482 286.543 431.648 282.094 451.9C278.485 468.276 277.223 480.663 277.888 498.008V498.031Z" fill="#151515"/>
<path fillRule="evenodd" clipRule="evenodd" d="M133.199 191.905C126.514 188.584 128.373 179.704 128.24 171.654C127.886 149.188 123.636 157.03 131.317 128.867C133.243 121.786 131.295 112.744 139.331 114.197C150.134 116.158 144.821 146.305 145.773 156.869C147.345 174.514 142.209 177.005 133.199 191.905ZM134.505 113.69C128.86 117.519 132.358 118.28 128.041 133.434C122.927 151.356 125.34 164.803 126.669 183.048C127.266 191.513 131.34 199.655 136.874 189.23C140.372 182.61 143.05 181.71 146.238 172.807C149.713 163.096 147.278 158.737 147.367 148.888C147.433 140.677 148.607 132.535 147.81 124.139C147.057 116.204 142.32 108.431 134.527 113.713L134.505 113.69Z" fill="#151515"/>
<path fillRule="evenodd" clipRule="evenodd" d="M101.831 454.229L102.451 453.538C99.8827 438.729 102.539 428.904 101.941 414.649C101.344 400.302 100.569 388.839 103.181 374.653C105.572 361.598 113.386 365.427 113.652 343.284C113.741 336.503 113.807 307.694 111.305 303.911C108.937 307.51 111.903 335.788 111.704 343.284C111.195 362.29 103.447 361.045 101.012 376.037C98.9751 388.539 99.0858 402.401 99.772 415.11C100.392 426.297 96.2301 445.603 101.853 454.229H101.831Z" fill="#151515"/>
<path fillRule="evenodd" clipRule="evenodd" d="M317.225 78.145L316.384 77.2224C314.613 83.427 312.112 83.5193 309.522 98.4196C307.95 107.438 309.278 116.757 303.257 121.347C295.686 118.625 297.39 101.395 296.372 93.4144C294.889 81.8355 290.528 76.6919 287.318 66.6123C284.816 58.7469 283.953 26.732 284.219 15.8681C284.374 9.66348 285.968 5.7654 286.698 -0.0240479H284.44C281.828 15.6144 281.142 53.7648 285.724 68.1577C289.155 78.9293 293.317 83.5654 294.977 96.3207C296.438 107.6 293.583 122.154 304.253 123.492C310.54 117.356 309.522 111.452 310.783 100.98C312.001 90.9695 316.251 84.8802 317.203 78.122L317.225 78.145Z" fill="#151515"/>
<path fillRule="evenodd" clipRule="evenodd" d="M35.5744 58.6787C38.0759 74.3402 33.095 86.5649 34.9324 98.7666C37.124 113.367 39.5812 120.194 39.5812 136.433C39.5812 174.214 57.1138 160.052 56.3833 203.622C62.8695 197.602 55.7192 175.367 52.1108 169.647C45.1819 158.599 41.7728 153.939 41.4407 136.41C41.1308 119.502 39.4484 113.321 36.8362 97.7286C35.3309 88.7561 40.1346 79.0686 37.2125 55.4726C34.711 56.5336 34.9103 53.2814 35.5522 58.6556L35.5744 58.6787Z" fill="#151515"/>
<path fillRule="evenodd" clipRule="evenodd" d="M448.056 160.259L449.451 157.745C449.606 144.413 438.293 149.649 433.357 128.267C430.103 114.221 431.232 101.811 426.826 87.2338C420.451 66.0827 424.347 66.89 424.613 46.5924C424.701 39.6727 422.687 32.1995 422.067 25.0261C421.558 19.0752 423.107 6.343 421.093 2.12201C420.916 2.35266 420.694 2.44493 420.65 2.90624C420.606 3.36755 420.318 3.50594 420.252 3.7366C419.831 5.23586 419.809 4.82068 419.61 6.71205C418.259 19.8133 422.576 38.2888 422.642 45.416C422.886 67.3283 418.193 64.422 425.078 87.8335C429.306 102.226 428.31 114.866 431.497 128.982C436.722 152.094 446.373 142.337 448.034 160.236L448.056 160.259Z" fill="#151515"/>
<path fillRule="evenodd" clipRule="evenodd" d="M390.3 266.614C397.428 262.693 397.517 255.266 396.321 247.516C394.55 236.214 394.75 234.184 396.211 223.021C397.605 212.341 395.591 198.317 399.775 173.199C405.22 140.423 404.711 154.677 413.101 133.734C419.1 118.764 420.562 111.107 419.233 93.1617L417.175 86.7033C416.798 108.062 419.809 113.99 411.419 133.18C400.018 159.314 397.871 160.513 395.502 194.927C394.971 202.792 395.724 214.279 394.927 220.483C391.208 249.615 396.41 248.254 394.816 256.765C394.484 258.611 393.731 259.995 392.868 261.586L390.256 266.637L390.3 266.614Z" fill="#151515"/>
<path fillRule="evenodd" clipRule="evenodd" d="M26.1881 200.785C32.8514 206.114 29.4423 231.947 29.9957 240.966C30.7041 252.706 37.3452 271.989 23.9965 273.857C18.9935 269.452 20.2111 264.654 19.9012 256.881C19.1928 238.705 15.0089 230.517 21.9599 208.166C22.2256 207.313 23.1111 204.591 23.4431 203.992C25.4133 200.232 24.3065 202.239 26.166 200.785H26.1881ZM32.298 221.66C32.2758 214.994 31.9216 204.268 28.3797 198.94C12.3303 198.548 17.0897 253.398 18.3516 266.338C20.0561 283.798 35.1758 274.549 34.4453 261.448C34.1132 255.497 32.3865 249.915 32.1873 243.111C31.9659 235.637 32.3422 228.972 32.3201 221.66H32.298Z" fill="#151515"/>
<path fillRule="evenodd" clipRule="evenodd" d="M364.599 165.564C357.382 164.757 356.452 159.268 356.519 151.148C356.563 144.436 355.146 137.909 353.862 131.52C351.471 119.549 351.914 104.118 360.016 96.8753C365.772 97.4519 367.698 100.381 369.801 111.383C371.284 119.11 373.741 123.562 375.535 130.436C377.638 138.462 369.956 160.444 364.599 165.541V165.564ZM358.644 95.03C355.279 96.5985 351.671 107.578 350.896 112.099C349.634 119.433 351.029 127.875 352.512 135.026C354.482 144.436 353.84 149.234 354.947 157.653C355.788 164.227 361.787 171.054 367.145 165.495C370.111 162.428 372.457 152.763 374.228 147.804C377.173 139.523 379.386 136.179 376.221 126.422C371.284 111.222 369.004 90.1401 358.666 95.03H358.644Z" fill="#151515"/>
<path fillRule="evenodd" clipRule="evenodd" d="M273.814 247.539L275.873 247.332C275.895 234.807 278.175 222.26 280.367 210.173C282.271 199.748 286.344 182.794 285.901 172.784C285.082 153.939 297.479 108.754 290.196 93.277C288.934 94.9839 289.465 91.6625 289.155 96.6446C289.111 97.4519 289.465 101.189 289.554 102.296C289.797 105.686 289.864 109.146 289.886 112.56C289.952 120.056 289.532 126.722 288.823 134.149C287.495 148.427 283.001 155.992 283.798 171.654C284.396 183.625 280.522 197.487 278.507 209.412C276.294 222.536 275.762 234.946 273.836 247.539H273.814Z" fill="#151515"/>
<path fillRule="evenodd" clipRule="evenodd" d="M215.571 500.13H217.608C217.365 470.814 217.453 473.835 221.482 447.91C224.028 431.51 233.17 438.522 239.236 447.494C245.412 456.651 241.494 487.675 241.583 500.107H243.708C243.575 486.452 245.899 473.72 244.593 460.273C243.553 449.478 237.908 437.346 229.85 435.57C213.955 432.064 215.771 490.396 215.571 500.107V500.13Z" fill="#151515"/>
<path fillRule="evenodd" clipRule="evenodd" d="M69.3555 380.835C66.9204 382.38 66.1014 378.621 67.8059 383.787C69.4662 392.714 74.5356 392.045 75.0448 405.769C75.244 411.212 76.2845 428.673 85.095 425.859C91.0942 421.361 89.6553 415.341 90.5408 406.945C91.2713 399.956 95.7209 366.673 97.8018 362.198C99.9269 357.631 105.439 348.797 102.517 343.353C100.724 346.444 101.809 349.051 96.2743 360.722C92.8209 367.987 89.2126 402.678 87.995 413.772L86.6004 421.061C85.6263 422.883 86.1576 421.938 84.9844 423.022C77.3692 425.121 77.347 410.451 77.1699 403.531C76.9043 392.621 70.9494 390.499 69.3555 380.858V380.835Z" fill="#151515"/>
<path fillRule="evenodd" clipRule="evenodd" d="M325.792 305.457L324.686 304.673C323.047 318.166 315.144 324.44 307.773 343.492C305.47 349.443 304.829 351.703 297.789 352.695C287.495 346.883 292.255 334.266 289.731 322.226C286.565 307.164 288.27 298.468 287.982 284.006C288.049 278.447 288.602 282.414 286.344 281.815C286.654 294.524 284.241 306.679 287.097 320.219C289.709 332.651 286.521 348.912 295.155 354.171C307.109 358.669 309.477 343.215 313.949 333.943C318.044 325.455 326.523 317.612 325.77 305.457H325.792Z" fill="#151515"/>
<path fillRule="evenodd" clipRule="evenodd" d="M480 95.2837V91.9623C462.334 108.569 475.949 128.636 464.725 136.456C459.634 140.008 455.649 136.825 454.055 131.543C451.022 121.463 454.166 109.446 449.827 96.2294C448.056 90.832 445.51 86.7725 444.78 80.7524C444.093 75.0321 445.798 65.6445 444.005 61.5388C438.913 69.4734 444.116 87.4183 447.392 95.3298C453.081 109.077 448.809 119.895 451.974 131.45C456.07 146.374 470.569 140.654 471.787 127.368C473.16 112.329 470.237 105.087 480.022 95.2837H480Z" fill="#151515"/>
<path fillRule="evenodd" clipRule="evenodd" d="M27.2729 436.169L29.2431 418.27C29.885 411.835 31.5896 405.169 31.3682 399.103C31.014 388.723 32.9842 373.523 35.9285 363.605C38.9834 353.364 43.8979 344.853 46.5543 332.651C48.0375 325.824 49.7864 321.095 49.7421 313.737C49.7199 310.324 49.41 307.302 49.6093 303.796C49.8528 299.344 50.9596 297.222 49.078 293.924C47.2184 299.437 47.5062 307.325 47.6612 313.783C48.0375 329.768 39.6918 347.644 34.401 362.129C31.2797 370.686 29.0217 389.531 29.4202 399.011C29.8408 409.252 23.6866 427.243 27.2729 436.169Z" fill="#151515"/>
<path fillRule="evenodd" clipRule="evenodd" d="M311.536 0H309.499L310.739 35.2211C310.673 41.7486 305.736 58.2405 302.194 60.9622C298.807 54.7576 299.117 37.9659 299.383 29.57C299.759 18.4063 302.216 10.218 305.183 0.0230655H302.571C300.268 10.9561 297.235 19.8825 297.346 31.8535C297.413 41.0105 295.642 60.201 303.522 63.4994C308.127 59.0016 312.067 44.8394 312.554 36.4435C312.931 29.9391 311.226 25.6027 311.802 18.1987C312.399 10.218 312.156 7.75002 311.558 0L311.536 0Z" fill="#151515"/>
<path fillRule="evenodd" clipRule="evenodd" d="M438.426 425.282C442.057 423.898 440.928 425.305 442.721 420.369C452.838 392.691 440.33 348.613 450.225 323.563L456.8 302.089C457.11 300.359 457.265 299.621 457.177 297.776L456.003 293.371C455.118 295.4 454.631 308.294 448.454 322.918C437.851 348.036 452.882 388.378 438.404 425.259L438.426 425.282Z" fill="#151515"/>
<path fillRule="evenodd" clipRule="evenodd" d="M273.836 454.414C276.294 451.531 275.762 443.204 275.851 438.729C276.183 422.076 267.439 429.803 263.653 396.104C261.86 380.12 263.321 377.836 265.446 362.728L268.701 334.104C268.346 328.822 268.856 331.751 267.107 329.814C265.469 337.264 264.849 352.557 263.41 362.152C260.532 381.573 259.182 404.662 268.789 423.437C278.618 442.697 270.826 437.507 273.792 454.391L273.836 454.414Z" fill="#151515"/>
<path fillRule="evenodd" clipRule="evenodd" d="M436.279 -0.00098232H434.486C435.504 24.9098 438.67 2.58236 433.335 33.3056C425.033 81.0052 435.482 82.4122 435.858 101.303C436.279 123.146 436.987 118.579 441.326 135.786C443.385 133.11 442.676 136.385 442.433 132.372C442.389 131.68 438.869 125.406 437.851 103.448C436.699 78.7447 426.848 80.8898 435.15 33.9053C440.684 2.53623 437.607 25.0713 436.301 -0.0240479L436.279 -0.00098232Z" fill="#151515"/>
<path fillRule="evenodd" clipRule="evenodd" d="M296.284 0H294.048C293.118 8.00374 291.768 12.7322 291.214 21.6124C289.93 41.8178 286.1 44.701 292.476 66.867C294.623 74.3171 295.619 80.6832 304.43 78.9764C306.157 78.2152 306.976 75.9317 307.795 73.9712L314.502 56.0031C318.332 47.0998 320.17 39.3267 319.882 28.0477C318.399 30.3081 318.62 31.4153 318.399 35.198C317.823 45.5083 306.666 73.8097 304.319 76.9928C296.195 77.4541 296.018 71.2725 293.959 64.422C291.723 56.9949 290.661 51.2747 291.037 43.1556C291.723 28.6474 294.38 14.3006 296.284 0Z" fill="#151515"/>
<path fillRule="evenodd" clipRule="evenodd" d="M259.647 100.127C266.288 105.433 265.247 122.086 264.827 129.582C264.273 139.27 267.771 154.308 259.912 159.613C255.086 162.889 256.149 153.432 256.326 148.911C256.791 136.248 254.976 109.031 259.647 100.127ZM256.614 163.281C261.13 162.889 265.513 157.561 266.42 152.532L266.398 110.991C266 108.569 265.026 104.81 264.074 102.342C260.776 93.7614 257.411 97.3366 256.016 103.149C253.935 111.753 252.806 157.884 256.614 163.304V163.281Z" fill="#151515"/>
<path fillRule="evenodd" clipRule="evenodd" d="M108.007 416.794C106.103 419.862 108.361 425.444 108.826 433.101C109.623 446.203 106.28 456.536 115.489 465.093C118.854 468.207 123.326 471.782 128.462 470.606C141.567 467.584 133.93 440.69 134.483 421.707C134.594 417.924 135.125 415.341 135.723 411.651C137.184 402.978 136.232 404.846 134.904 403.047C130.011 435.662 139.397 463.756 128.617 468.184C124.056 470.076 120.581 466.062 117.57 463.94C113.32 460.942 111.925 459.027 111.018 451.3C109.667 439.837 112.523 427.243 107.963 416.771L108.007 416.794Z" fill="#151515"/>
<path fillRule="evenodd" clipRule="evenodd" d="M425.454 485.622C432.25 470.352 420.495 464.886 439.71 445.649C452.749 432.594 455.051 430.287 454.299 405.792C454.1 399.426 455.096 373.569 452.816 370.894C448.875 391.653 457.863 419.516 447.215 435.339C436.766 450.862 427.136 442.904 425.122 477.41C424.923 480.778 424.414 483.061 425.432 485.622H425.454Z" fill="#151515"/>
<path fillRule="evenodd" clipRule="evenodd" d="M71.525 -0.000982324H69.2006C67.0754 7.49531 60.9213 13.6538 57.6893 24.9098C53.771 38.5185 57.8885 47.9753 49.1 52.3578C43.6764 49.9359 43.61 46.7759 42.3703 39.8563C38.6734 19.4202 28.4018 39.6948 28.1804 -0.000982324H26.1217C25.5904 38.6799 37.2124 21.1501 40.7986 41.9322C42.2597 50.4433 41.9719 49.3362 46.9306 54.2491L53.0183 53.7878C59.0839 42.7164 55.9626 36.7655 59.748 24.633C63.135 13.7461 68.0716 9.1099 71.5471 -0.0240479L71.525 -0.000982324Z" fill="#151515"/>
<path fillRule="evenodd" clipRule="evenodd" d="M111.018 110.968C95.0345 107.854 107.409 91.3626 102.539 81.8827C102.406 82.1133 102.251 82.2286 102.229 82.6438L100.525 101.004C101.255 107.647 104.797 112.86 111.261 112.79C117.792 108.131 115.135 102.78 116.53 94.0151C117.836 85.7115 121.666 82.8283 119.164 73.7405C115.113 59.0939 117.858 42.1407 118.5 26.5023C116.087 28.9703 116.153 24.3572 116.043 37.1125C115.954 47.0537 113.519 61.0314 116.375 71.9414C119.43 83.7048 117.592 80.8447 115.091 91.4318C113.143 99.7123 115.666 105.248 111.018 110.991V110.968Z" fill="#151515"/>
<path fillRule="evenodd" clipRule="evenodd" d="M20.7202 413.842C21.65 412.55 21.2073 414.372 21.7385 411.374C21.805 411.005 21.9599 408.606 21.9821 408.191C22.3363 396.266 21.65 373.362 19.237 363.144C12.7287 335.534 15.9386 343.538 15.9386 319.342C15.9386 313.83 15.6508 314.106 14.1676 312.607C11.489 322.502 13.9463 351.911 16.6913 362.175C20.7202 377.306 17.8424 406.022 20.7202 413.865V413.842Z" fill="#151515"/>
<path fillRule="evenodd" clipRule="evenodd" d="M477.83 47.9302C476.037 51.1363 475.461 74.7554 467.935 85.2271C465.278 88.9407 460.275 89.1483 457.619 85.896C453.568 80.9369 454.763 65.4138 454.166 57.9637C453.324 47.4689 452.085 50.1906 452.284 36.3513C452.417 27.6325 451.288 29.3624 450.314 28.3245C449.915 40.6876 451.177 47.7687 452.04 59.5321C452.727 68.8506 451.221 82.8514 457.442 88.341C461.161 91.6163 466.629 90.4861 469.086 87.5337C470.525 85.8268 473.071 78.838 474.266 75.8856C476.923 69.4272 480.664 54.2271 477.808 47.9532L477.83 47.9302Z" fill="#151515"/>
<path fillRule="evenodd" clipRule="evenodd" d="M208.178 304.373L207.093 304.096C203.817 306.956 200.917 329.56 200.12 333.735C190.092 385.333 198.083 364.089 204.436 393.89C206.761 404.823 205.189 418.155 207.049 428.511C208.642 426.528 207.757 429.965 208.377 425.121C208.465 424.521 208.333 421.43 208.31 420.646C207.956 412.227 208.023 402.955 206.517 395.113C204.237 383.257 198.88 377.283 197.485 367.18C196.069 356.916 205.41 313.899 208.178 304.396V304.373Z" fill="#151515"/>
<path fillRule="evenodd" clipRule="evenodd" d="M188.365 249.269L190.446 248.969C191.575 237.852 192.682 231.786 196.91 222.167C202.798 208.812 200.585 207.198 199.721 193.266C198.26 169.947 205.41 164.434 203.197 145.428L202.068 132.996C201.337 129.375 202.533 131.658 200.407 129.421C199.433 140.169 202.732 149.119 201.182 159.66C199.411 171.585 197.64 178.112 197.685 190.983C197.729 204.361 201.603 207.451 195.493 220.737C190.711 231.14 190.136 237.367 188.365 249.246V249.269Z" fill="#151515"/>
<path fillRule="evenodd" clipRule="evenodd" d="M174.751 500.13H176.61C182.831 482.992 177.961 461.541 179.997 442.12C181.148 431.21 180.44 422.076 181.126 411.466L182.654 383.372C182.609 383.188 182.454 382.796 182.432 382.657C182.388 382.519 182.277 382.196 182.167 381.965C179.577 386.786 176.632 460.734 177.717 472.89C179.023 487.398 177.54 487.675 174.728 500.13H174.751Z" fill="#151515"/>
<path fillRule="evenodd" clipRule="evenodd" d="M434.419 500.13H436.213C436.744 473.282 435.748 462.325 451.266 449.709C461.582 441.313 458.549 443.02 462.113 427.912C464.216 418.962 462.024 418.224 461.139 405.215C460.962 402.517 460.896 403.255 460.364 402.286C454.454 411.351 464.105 411.512 459.612 428.973C453.258 453.63 461.604 435.593 448.056 449.778C433.18 465.37 434.641 470.329 434.419 500.13Z" fill="#151515"/>
<path fillRule="evenodd" clipRule="evenodd" d="M411.397 336.365L412.238 333.62C410.6 313.092 403.073 303.842 404.578 280.731C405.043 273.442 403.051 261.586 402.542 253.49C401.944 243.78 402.121 233.146 402.187 223.39C399.398 226.342 400.018 218.269 400.262 237.575L402.52 283.037C401.169 301.743 408.386 318.558 411.397 336.365Z" fill="#151515"/>
<path fillRule="evenodd" clipRule="evenodd" d="M185.465 500.13H187.059C190.025 489.151 191.464 485.714 190.49 473.558C189.118 456.421 191.796 417.394 193.833 398.872C194.121 396.335 194.453 393.452 194.519 390.915C194.652 385.517 194.364 385.817 193.102 384.595C190.18 396.981 189.715 428.142 189.317 441.705C188.985 452.384 187.502 460.665 188.454 471.736C189.583 484.722 188.387 488.62 185.487 500.153L185.465 500.13Z" fill="#151515"/>
<path fillRule="evenodd" clipRule="evenodd" d="M196.755 0H194.74C187.657 21.2434 179.798 19.375 173.245 29.3855C165.453 41.3104 164.081 57.1564 164.147 71.6185C164.213 82.9898 162.287 94.0151 162.464 104.464C164.213 102.226 163.948 102.503 164.39 98.8358C168.552 64.0299 161.269 39.2806 183.406 21.7969C188.852 17.5067 193.479 9.71059 196.733 0L196.755 0Z" fill="#151515"/>
<path fillRule="evenodd" clipRule="evenodd" d="M151.639 373.385C145.662 367.042 147.256 337.633 148.695 327.577C156.222 326.677 153.1 331.106 156.089 336.388C156.133 336.457 157.528 338.325 157.926 338.994L160.583 348.912C160.937 354.425 156.067 371.816 151.662 373.385H151.639ZM147.876 325.708C143.604 332.859 145.707 366.442 148.894 375.322C158.148 376.36 155.624 372.762 158.568 365.22C160.627 359.961 162.642 355.809 162.287 349.097C161.8 339.824 155.713 322.641 147.876 325.731V325.708Z" fill="#151515"/>
<path fillRule="evenodd" clipRule="evenodd" d="M480 188.376V182.148C473.049 192.251 462.644 236.583 466.474 251.645C467.802 256.904 467.182 262.186 468.533 266.568C470.104 271.643 472.606 271.32 474.399 277.455C475.528 281.33 475.86 288.827 477.808 291.687C481.417 287.074 474.023 272.381 471.831 268.76C470.127 265.969 466.806 245.579 467.204 241.196C468.511 226.826 473.071 198.387 479.978 188.33L480 188.376Z" fill="#151515"/>
<path fillRule="evenodd" clipRule="evenodd" d="M371.151 0H369.048C372.524 16.5841 379.674 10.6101 384.898 51.2055C387.599 72.149 381.246 79.4838 389.547 103.218C391.163 107.831 390.743 107.416 393.399 109.423C391.672 99.5047 387.776 94.0612 386.891 81.8596C385.806 67.213 389.348 44.2628 381.179 22.3505C378.169 14.2776 372.967 8.53425 371.173 0L371.151 0Z" fill="#151515"/>
<path fillRule="evenodd" clipRule="evenodd" d="M232.418 247.378L234.521 247.332C231.444 225.904 236.358 205.006 233.901 182.402C232.883 173.061 228.964 161.366 228.987 153.455C229.009 146.674 233.392 127.599 228.743 123.793C228.61 129.144 228.832 134.564 228.743 139.869C228.654 145.636 226.972 148.565 227.149 154.47C227.658 171.792 235.539 176.405 232.285 213.656C231.267 225.419 232.506 235.868 232.396 247.378H232.418Z" fill="#151515"/>
<path fillRule="evenodd" clipRule="evenodd" d="M150.355 500.13H152.259C153.455 488.62 151.374 482.462 151.617 471.713C151.816 462.625 154.34 454.691 154.495 445.58C154.65 437.046 153.344 424.913 154.03 417.186C154.893 407.429 161.756 404.685 162.354 398.157C158.679 399.841 152.569 410.428 151.971 416.171C151.086 424.475 152.547 436.792 152.436 445.58C152.326 454.598 149.846 463.294 149.758 472.843C149.669 483.223 151.462 488.989 150.378 500.13H150.355Z" fill="#151515"/>
<path fillRule="evenodd" clipRule="evenodd" d="M134.704 0H132.601C134.04 7.77308 134.771 19.5365 135.324 27.3096C136.188 39.4651 131.937 70.2576 139.929 82.6207C143.781 88.5947 147.212 87.7413 148.651 96.2063C148.739 96.6907 148.983 98.9511 149.005 99.0203L150.023 101.488C150.112 101.673 150.333 101.996 150.532 102.226C151.263 89.1252 147.234 87.8797 141.965 81.6981C134.107 72.4488 137.737 39.6035 137.339 27.3557C137.117 20.759 135.59 6.94272 134.704 0Z" fill="#151515"/>
<path fillRule="evenodd" clipRule="evenodd" d="M53.2398 471.713C53.1955 481.7 53.8817 495.102 45.7795 496.693C42.6139 484.93 47.949 468.622 44.717 463.248C41.5071 466.846 43.433 476.995 42.9903 482.415C42.3704 489.589 40.3781 496.001 46.9085 498.884C55.4978 496.209 55.0329 482.646 55.1657 472.843C55.2321 469.176 55.6748 443.942 53.439 441.267C51.5352 447.863 53.2619 463.871 53.2176 471.713H53.2398Z" fill="#151515"/>
<path fillRule="evenodd" clipRule="evenodd" d="M246.63 31.5767L244.77 31.0462C241.715 34.9904 235.893 41.4949 233.79 45.8543C230.381 52.9354 231.399 60.4317 223.629 63.015C216.789 57.7792 219.047 48.4146 212.428 34.4368C205.521 19.8594 207.115 16.6764 208.288 0H206.274C202.599 31.5075 209.461 25.5335 215.815 51.2747C223.186 81.1676 231.421 55.7725 234.676 47.9071C235.805 45.1623 243.464 32.7531 246.63 31.5767Z" fill="#151515"/>
<path fillRule="evenodd" clipRule="evenodd" d="M401.457 485.437C407.788 482.646 408.807 466.985 410.688 459.719C417.595 433.101 424.635 439.583 418.923 401.294C417.484 391.676 416.245 374.515 413.013 370.317C413.876 385.586 422.089 421.592 418.148 433.47C410.622 456.236 412.592 446.848 406.305 472.267C404.866 478.056 402.719 481.262 401.479 485.437H401.457Z" fill="#151515"/>
<path fillRule="evenodd" clipRule="evenodd" d="M414.031 0H412.415C411.109 14.093 412.238 21.6355 413.345 35.198C414.407 48.1839 411.817 56.9488 410.401 69.4273C409.183 80.0605 410.578 94.4995 407.722 104.279C405.265 112.744 397.694 123.101 400.749 133.48C401.302 132.096 402.608 122.593 403.56 119.249C405.066 113.828 407.434 110.738 408.984 105.617L415.094 35.5901C414.651 23.1578 413.323 12.9628 414.031 0Z" fill="#151515"/>
<path fillRule="evenodd" clipRule="evenodd" d="M174.596 242.004C173.334 241.104 173.511 241.519 172.05 240.666L173.09 246.155C179.975 245.21 182.764 238.521 185.089 231.393C186.439 227.288 190.579 158.945 189.848 156.984C188.099 158.806 189.029 153.639 188.077 160.859L186.948 179.358C186.439 187.315 185.31 195.434 184.889 203.53C184.115 218.592 187.037 223.666 180.993 237.367C180.506 238.475 178.735 241.358 178.315 241.75C175.592 244.31 175.725 242.926 174.618 242.027L174.596 242.004Z" fill="#151515"/>
<path fillRule="evenodd" clipRule="evenodd" d="M233.458 85.3655C233.458 85.7346 233.458 87.2569 233.525 87.4876C234.078 89.5404 233.813 88.6639 234.499 89.8403C237.731 69.6348 235.539 60.6624 246.099 43.8476C249.729 38.0581 254.599 36.5127 257.322 27.0097C258.85 21.6585 259.691 6.18156 259.956 0H257.986C257.787 6.64287 257.057 19.2136 255.507 25.3952C253.05 35.3595 249.707 34.7598 245.147 41.7717C238.063 52.6586 232.307 69.9116 233.458 85.3655Z" fill="#151515"/>
<path fillRule="evenodd" clipRule="evenodd" d="M194.873 500.13H197.021C202.223 482.6 201.78 473.305 201.559 454.668C201.404 440.552 201.669 420.07 199.655 407.153C197.663 409.229 197.463 406.991 198.437 418.293C199.677 432.64 199.876 465.509 199.256 479.625C198.924 487.19 196.489 492.98 194.851 500.13H194.873Z" fill="#151515"/>
<path fillRule="evenodd" clipRule="evenodd" d="M480 377.513V371.447C475.949 364.735 479.048 335.742 478.428 325.062C478.03 318.166 476.679 309.701 473.691 304.396C466.208 291.133 470.481 290.579 466.85 286.589C464.703 303.035 475.572 298.076 476.591 329.606C477.078 344.437 472.075 365.635 480 377.49V377.513Z" fill="#151515"/>
<path fillRule="evenodd" clipRule="evenodd" d="M444.492 500.13H446.396C446.794 492.864 447.082 480.985 447.857 474.296C448.808 466.085 452.129 459.142 459.279 459.442C462.445 462.925 461.914 464.032 463.663 468.253C467.846 478.425 476.657 473.512 475.218 500.13H477.255C477.963 491.204 477.343 481.147 471.898 475.611C468.887 472.567 467.714 472.359 465.566 467.492C463.176 462.049 463.419 460.826 460.187 457.297C451.133 456.628 448.167 462.81 446.241 471.736C445.112 476.972 444.846 493.741 444.514 500.153L444.492 500.13Z" fill="#151515"/>
<path fillRule="evenodd" clipRule="evenodd" d="M167.003 229.663L168.043 231.624C170.788 214.648 168.043 199.194 167.335 182.471C166.981 174.006 166.051 165.311 166.693 156.869C167.091 151.679 169.128 137.517 167.977 133.895C165.807 136.433 166.051 135.787 165.608 144.344C164.723 161.689 164.391 160.767 165.077 179.542C165.387 188.122 167.158 194.235 166.958 203.461C166.826 209.158 166.56 224.843 166.981 229.663H167.003Z" fill="#151515"/>
<path fillRule="evenodd" clipRule="evenodd" d="M405.951 -0.000982324H403.715C404.003 12.316 399.863 23.1337 400.859 47.7447C401.612 66.3585 404.335 78.6525 398.181 95.6056C400.483 94.1756 401.302 93.7604 402.697 87.648C404.955 77.7529 402.143 43.27 403.339 24.3101C403.914 14.9224 406.062 9.848 405.973 -0.0240479L405.951 -0.000982324Z" fill="#151515"/>
<path fillRule="evenodd" clipRule="evenodd" d="M243.664 0H241.472C241.715 18.3602 242.247 20.7359 233.768 31.0001C229.341 36.3513 229.629 42.1177 224.36 44.2858C212.207 26.2716 217.232 10.7255 217.719 0H215.594C215.328 9.98737 212.539 17.6451 215.638 27.6556C216.9 31.7612 218.139 35.4056 219.755 39.2575C222.08 44.7933 221.482 46.1772 226.928 46.2925C229.606 43.1556 231.577 36.1437 235.606 31.7382C243.42 23.1347 243.708 15.4308 243.686 0L243.664 0Z" fill="#151515"/>
<path fillRule="evenodd" clipRule="evenodd" d="M225.688 500.13H227.481V461.887C228.322 457.436 228.212 459.189 230.182 457.782C238.284 462.21 234.277 491.526 233.502 500.107H235.34C236.823 487.951 239.745 461.518 231.422 454.944C223.098 457.712 224.825 465.808 225.356 475.104C225.887 484.261 226.286 490.834 225.666 500.107L225.688 500.13Z" fill="#151515"/>
<path fillRule="evenodd" clipRule="evenodd" d="M193.656 272.473L191.442 271.666C190.158 277.294 185.487 285.92 182.963 292.978C175.769 313.23 169.371 309.632 169.748 292.079C170.08 276.971 167.113 271.412 162.974 259.925C160.848 258.864 161.446 258.588 161.402 261.079C163.549 268.898 168.397 276.717 168.065 285.205C167.667 295.193 164.9 307.21 175.614 308.363C181.724 305.318 182.919 298.699 185.266 291.894C187.657 284.998 192.04 278.032 193.634 272.45L193.656 272.473Z" fill="#151515"/>
<path fillRule="evenodd" clipRule="evenodd" d="M316.362 370.525C316.34 370.571 316.052 370.432 315.211 372.693C313.418 377.467 312.466 387.224 311.093 392.391C304.873 415.871 306.622 419.631 306.378 443.319C306.312 450.032 303.854 465.993 307.374 470.329C309.544 454.091 307.241 433.055 308.038 416.217C308.68 402.724 316.805 382.611 316.34 370.548L316.362 370.525Z" fill="#151515"/>
<path fillRule="evenodd" clipRule="evenodd" d="M348.483 500.13H350.387C353.73 484.722 356.098 474.827 354.947 458.081C354.438 450.539 354.637 417.44 352.379 414.003C350.763 416.771 352.379 451.185 352.91 457.159C354.615 476.072 351.494 483.015 348.505 500.13H348.483Z" fill="#151515"/>
<path fillRule="evenodd" clipRule="evenodd" d="M141.19 500.13H143.404C143.648 486.752 148.629 425.813 144.002 418.593C141.81 422.422 144.511 432.064 144.113 437.645L141.19 500.13Z" fill="#151515"/>
<path fillRule="evenodd" clipRule="evenodd" d="M480 125.638V115.397C475.196 123.17 477.853 151.379 474.908 162.912C471.389 176.774 464.725 190.498 463.419 205.606C467.293 202.446 468.112 192.436 469.219 187.569C470.902 180.28 472.85 175.598 475.218 168.817C480.775 152.901 476.192 137.886 480 125.615V125.638Z" fill="#151515"/>
<path fillRule="evenodd" clipRule="evenodd" d="M378.612 500.13H380.582C376.509 478.886 374.273 457.574 375.579 435.339C375.623 434.601 375.889 431.164 375.844 430.703C375.247 421.476 376.376 428.581 374.162 426.113C370.089 440.529 374.848 485.253 378.589 500.13H378.612Z" fill="#151515"/>
<path fillRule="evenodd" clipRule="evenodd" d="M242.778 299.506C243.176 313.622 244.527 328.084 245.058 342.062C245.368 350.25 243.354 378.298 245.457 382.726C250.637 371.724 243.907 321.695 245.213 305.295L244.549 295.631C242.579 297.845 243.287 292.309 242.778 299.483V299.506Z" fill="#151515"/>
<path fillRule="evenodd" clipRule="evenodd" d="M66.544 419.285C67.9165 417.947 69.2669 423.967 67.5845 408.075C65.9463 392.668 59.4823 388.516 58.8846 377.421C57.6449 354.563 62.7364 369.325 55.9403 329.491C53.8152 332.282 53.3724 323.517 56.051 339.663C56.6487 343.238 56.9586 347.482 57.4235 351.311C60.3678 375.691 51.2251 367.226 62.6257 396.243C66.1898 405.331 64.7066 411.604 66.5662 419.308L66.544 419.285Z" fill="#151515"/>
<path fillRule="evenodd" clipRule="evenodd" d="M480 466.685V462.764C470.193 451.992 473.027 444.38 472.717 427.358C472.584 420.461 470.857 414.488 470.835 407.729L470.813 390.938C469.795 384.341 470.658 388.262 468.223 385.909C468.533 393.613 468.289 401.64 468.799 409.206C469.308 416.909 471.145 422.768 470.791 430.772C469.928 449.086 470.813 454.76 480.022 466.662L480 466.685Z" fill="#151515"/>
<path fillRule="evenodd" clipRule="evenodd" d="M184.38 372.693L185.509 374.146C186.594 356.432 182.012 344.484 186.129 325.662C187.679 318.558 188.321 309.286 190.291 302.827C192.704 294.916 196.688 290.833 198.393 283.821C198.304 281.953 198.769 282.437 196.954 282.437C195.559 288.112 191.553 294.916 189.162 300.613C187.214 305.295 181.414 341.278 182.211 347.759C183.163 355.371 184.38 365.127 184.358 372.67L184.38 372.693Z" fill="#151515"/>
<path fillRule="evenodd" clipRule="evenodd" d="M412.592 500.13H414.142C415.625 479.809 417.285 474.527 423.417 457.043C429.239 440.482 427.358 424.683 428.553 407.291C425.609 410.543 426.406 406.392 426.406 419.424C426.472 465.439 414.429 457.735 412.592 500.13Z" fill="#151515"/>
<path fillRule="evenodd" clipRule="evenodd" d="M370.155 294.224C373.852 289.98 382.685 259.995 383.482 255.243C384.699 248.047 385.231 240.297 386.249 233.1C386.802 229.294 387.444 225.512 387.688 221.637C387.976 217.185 388.795 212.987 386.98 210.381C384.5 222.721 383.836 241.173 381.844 254.69C379.586 270.097 371.107 281.169 370.133 294.247L370.155 294.224Z" fill="#151515"/>
<path fillRule="evenodd" clipRule="evenodd" d="M100.458 0H98.6208C97.7353 7.61162 99.9933 17.0224 96.8499 22.535C94.4369 26.7791 91.7583 26.3639 88.1057 37.2278C83.1027 52.0358 85.3164 66.867 84.3424 82.5054C86.6889 79.8298 86.5118 83.0128 86.6004 71.6185C86.8439 42.7635 85.4271 44.1244 98.4659 22.9502C101.786 17.5529 99.617 7.72695 100.48 0L100.458 0Z" fill="#151515"/>
<path fillRule="evenodd" clipRule="evenodd" d="M393.488 464.863C403.051 465.047 402.941 456.559 405.442 447.448C407.014 441.705 408.143 441.612 410.069 437.484C410.777 435.961 411.397 434.393 411.773 432.479C411.795 432.386 412.172 429.803 412.172 429.595C412.172 428.996 412.969 429.065 411.242 426.135C410.002 429.411 410.312 432.986 408.807 436.261C407.213 439.767 405.708 440.921 404.291 445.165C401.834 452.569 402.409 461.241 394.883 462.787C386.559 453.791 394.617 434.347 388.573 426.712C387.622 431.256 388.751 441.243 388.817 446.71C388.906 455.544 388.994 458.197 393.444 464.863H393.488Z" fill="#151515"/>
<path fillRule="evenodd" clipRule="evenodd" d="M421.004 174.006C425.144 172.922 425.188 171.054 430.412 171.215C434.441 185.839 431.32 192.067 432.914 204.637C434.154 214.556 438.559 219.722 434.928 233.815L430.767 246.34C440.573 241.427 437.563 217.831 435.216 206.99C434.198 202.262 434.353 189.922 434.087 184.086C433.711 175.229 434.463 168.424 424.148 169.278C423.107 170.477 421.978 171.677 421.004 174.006Z" fill="#151515"/>
<path fillRule="evenodd" clipRule="evenodd" d="M393.488 395.828C391.849 389 389.99 365.174 397.118 361.644C397.34 371.54 396.188 370.04 398.646 380.374C400.217 386.994 401.302 395.182 393.488 395.828ZM394.904 398.157C407.412 395.274 398.402 375.784 398.38 370.525C398.358 364.089 401.391 364.043 397.871 359.684C391.495 359.2 390.765 369.049 390.322 376.199C389.835 384.295 388.573 394.697 394.904 398.134V398.157Z" fill="#151515"/>
<path fillRule="evenodd" clipRule="evenodd" d="M121.887 0H120.072C121.865 7.08112 125.65 9.41074 126.137 16.0305C126.934 26.7791 122.905 54.0656 126.004 71.0188C127.532 79.3685 126.602 77.2695 129.259 80.0605C125.65 51.9897 126.846 66.7286 127.089 37.4584C127.156 30.8617 128.395 23.0886 128.152 16.9993C127.842 8.78797 123.702 7.33484 121.865 0L121.887 0Z" fill="#151515"/>
<path fillRule="evenodd" clipRule="evenodd" d="M381.335 0H378.9C385.098 14.7619 388.419 10.4948 390.433 30.8386C391.164 38.1735 392.514 63.8915 394.506 67.9741C395.502 60.2933 392.757 19.9978 388.994 13.032C386.404 8.2344 383.327 6.45835 381.335 0Z" fill="#151515"/>
<path fillRule="evenodd" clipRule="evenodd" d="M355.08 51.4131C355.323 44.8625 355.213 39.8572 358.91 35.6593C369.513 38.6809 364.09 72.6103 370.908 85.1118L368.894 67.0976C367.787 57.0872 368.451 29.9391 358.046 32.9606C354.637 33.9525 353.619 41.6563 353.309 45.4622C352.623 53.8349 353.22 49.5678 355.08 51.39V51.4131Z" fill="#151515"/>
<path fillRule="evenodd" clipRule="evenodd" d="M79.3173 311.708C78.0112 305.341 77.6791 286.335 80.734 281.007C84.3424 285.828 87.2645 290.741 86.3347 296.623C85.1615 304.073 83.7447 310.37 79.3394 311.708H79.3173ZM80.734 314.245C84.2981 312.469 81.7081 315.329 83.9882 311.362L88.5927 295.516C89.0355 290.464 87.7073 288.988 85.7592 285.805C83.7447 282.53 83.5012 280.108 81.376 277.086C75.3104 280.085 77.6348 285.436 76.8379 295.539C76.2181 303.266 74.4914 310.647 80.7562 314.268L80.734 314.245Z" fill="#151515"/>
<path fillRule="evenodd" clipRule="evenodd" d="M468.998 0H466.961C466.895 11.1407 470.813 62.0463 464.836 70.5575L463.795 71.8261C462.334 73.8328 463.84 71.2494 462.157 74.271C472.805 71.0418 469.839 51.5284 469.772 40.9183C469.662 26.9636 468.776 14.2084 469.02 0L468.998 0Z" fill="#151515"/>
<path fillRule="evenodd" clipRule="evenodd" d="M311.846 252.314C313.794 258.449 313.086 263.039 314.547 267.699C316.163 272.865 318.022 277.548 318.199 283.199C318.487 293.532 317.89 307.74 313.351 316.574C313.019 319.296 312.488 318.558 315.189 318.558C319.196 308.294 322.051 294.455 319.815 282.991L313.661 251.483C312.732 247.978 314.348 251.507 312.665 249.431L311.868 252.337L311.846 252.314Z" fill="#151515"/>
<path fillRule="evenodd" clipRule="evenodd" d="M69.8206 500.13H71.8351C75.3327 482.877 73.0083 481.262 72.5434 464.909C72.2114 453.215 74.6686 435.777 74.5358 432.963C74.2701 427.058 74.0709 429.942 73.0747 428.95C71.7686 434.163 70.0641 459.119 70.4183 464.909C71.4144 480.616 74.0045 483.892 69.7984 500.13H69.8206Z" fill="#151515"/>
<path fillRule="evenodd" clipRule="evenodd" d="M257.787 500.13H260.001C260.333 488.574 265.004 447.31 262.901 439.86C261.573 441.405 261.174 441.705 260.997 445.857C260.886 448.417 261.13 450.954 261.174 453.514L257.787 500.13Z" fill="#151515"/>
<path fillRule="evenodd" clipRule="evenodd" d="M206.54 500.13H208.488C210.48 485.299 213.623 452.43 209.484 438.799C208.465 439.998 207.757 438.729 208.333 445.557C208.532 447.979 208.798 450.124 208.908 452.569C210.148 475.865 208.421 478.656 206.562 500.13H206.54Z" fill="#151515"/>
<path fillRule="evenodd" clipRule="evenodd" d="M363.271 381.089C363.426 380.812 363.647 380.12 363.691 380.258L364.599 377.421C365.949 369.279 362.983 370.802 368.185 347.344C370.288 337.841 367.919 332.121 369.668 319.273C371.572 305.318 370.354 311.938 368.738 310.347C366.171 322.664 368.539 336.48 366.547 346.652C365.042 354.31 360.681 374.077 363.293 381.112L363.271 381.089Z" fill="#151515"/>
<path fillRule="evenodd" clipRule="evenodd" d="M98.7094 500.13H100.635C101.388 489.082 104.908 486.406 107.476 478.033L115.777 476.465C120.669 481.585 119.629 484.768 123.304 488.759C128.373 494.271 129.214 490.835 132.535 500.13H134.461C133.288 494.871 130.985 492.657 125.54 487.605C119.895 482.369 119.695 469.291 107.963 476.234C103.58 478.817 98.9972 493.533 98.7537 500.13H98.7094Z" fill="#151515"/>
<path fillRule="evenodd" clipRule="evenodd" d="M425.564 233.931C422.554 224.82 425.609 186.254 423.395 183.417C419.654 190.406 422.753 202.654 422.709 211.419C422.664 219.538 419.632 229.64 425.144 236.168C430.213 235.637 430.014 235.937 430.744 230.771C425.697 232.847 431.121 232.27 425.564 233.908V233.931Z" fill="#151515"/>
<path fillRule="evenodd" clipRule="evenodd" d="M329.268 500.13H331.437C340.558 467.492 338.92 489.543 336.485 458.128C336.064 452.684 336.64 446.503 335.732 441.382C331.703 446.341 335.4 464.055 336.308 471.69C337.414 481.055 331.238 490.696 329.268 500.13Z" fill="#151515"/>
<path fillRule="evenodd" clipRule="evenodd" d="M143.227 0H141.323C141.323 11.8787 142.674 24.3572 142.962 36.3743C143.249 48.5068 139.442 62.4153 148.23 67.7896C147.677 61.585 144.223 66.4749 144.378 54.6192C144.666 31.0693 143.559 21.1972 143.249 0H143.227Z" fill="#151515"/>
<path fillRule="evenodd" clipRule="evenodd" d="M265.247 293.624C264.627 287.42 265.469 291.825 263.72 290.095C263.211 312.999 256.06 313.368 256.304 355.786C256.326 361.252 255.418 363.074 258.185 366.834C257.853 355.417 256.614 338.44 258.894 327.784C260.665 319.458 265.513 301.443 265.247 293.647V293.624Z" fill="#151515"/>
<path fillRule="evenodd" clipRule="evenodd" d="M26.0995 500.13H28.2468C29.1987 489.358 33.1169 451.738 28.3796 444.496C26.8078 447.771 28.3796 467.677 28.5567 471.713C28.9994 481.562 27.0071 490.535 26.1216 500.13H26.0995Z" fill="#151515"/>
<path fillRule="evenodd" clipRule="evenodd" d="M176.167 0H174.109L159.498 22.0276C149.736 24.4033 151.551 8.81103 152.259 0H150.178C149.758 5.58186 149.072 11.0715 150.178 16.6072C151.374 22.6273 157.329 27.2173 161.977 22.166L176.145 0H176.167Z" fill="#151515"/>
<path fillRule="evenodd" clipRule="evenodd" d="M53.0847 150.387C54.3908 148.611 54.5458 151.218 54.3023 144.413C53.3282 116.758 48.0153 129.744 46.2886 105.663C46.0008 101.788 46.3107 101.304 44.7169 98.6282C43.4108 101.511 43.9199 106.955 44.5176 111.383C45.0711 115.535 46.3772 119.941 48.0817 123.724C53.771 136.179 51.2031 137.747 53.0626 150.387H53.0847Z" fill="#151515"/>
<path fillRule="evenodd" clipRule="evenodd" d="M285.038 500.13H287.052C288.115 493.072 290.041 484.792 290.638 477.364C291.391 468.184 293.826 463.294 294.712 455.014C295.309 449.155 295.509 453.169 293.118 451.716C292.277 461.011 288.845 467.677 288.535 476.211C288.27 483.5 286.654 493.118 285.016 500.107L285.038 500.13Z" fill="#151515"/>
<path fillRule="evenodd" clipRule="evenodd" d="M446.285 -0.000982318H444.314C443.119 9.2483 439.422 40.5713 442.92 46.9143C444.337 43.27 444.137 39.049 443.85 35.2201C443.473 29.915 443.628 27.9083 444.204 22.6724C445.001 15.3376 445.443 7.42612 446.285 -0.0240479V-0.000982318Z" fill="#151515"/>
<path fillRule="evenodd" clipRule="evenodd" d="M480 263.247V259.51L477.233 255.266C469.927 243.595 474.953 224.312 480 216.332V210.957C476.148 215.847 468.311 240.85 473.492 252.199C474.997 255.497 477.853 261.102 480 263.224V263.247Z" fill="#151515"/>
<path fillRule="evenodd" clipRule="evenodd" d="M59.3274 0H57.1137L48.3917 18.4524C37.5445 19.1213 37.3674 9.4338 38.12 0H36.2163C35.2865 10.91 35.8399 14.1853 42.0826 20.3899L47.9711 20.7359C51.6016 16.907 56.8924 6.13543 59.3053 0H59.3274Z" fill="#151515"/>
<path fillRule="evenodd" clipRule="evenodd" d="M79.2066 500.13H81.5753C82.7264 488.274 85.0508 464.448 81.8188 453.307C78.786 456.328 80.4463 455.175 81.1104 463.756C81.8852 473.512 80.8226 491.019 79.1845 500.13H79.2066Z" fill="#151515"/>
<path fillRule="evenodd" clipRule="evenodd" d="M139.729 220.737C139.575 222.652 139.397 224.312 139.464 226.25C139.486 226.527 139.796 229.571 139.796 229.571C140.371 231.901 140.217 230.863 141.013 232.108C141.279 201.362 156.266 202.469 155.956 184.317C152.193 188.399 155.757 189.437 147.677 201.639C144.622 206.229 140.615 214.44 139.729 220.737Z" fill="#151515"/>
<path fillRule="evenodd" clipRule="evenodd" d="M263.72 290.095C265.469 291.825 264.627 287.42 265.247 293.624C267.107 288.227 265.845 259.741 265.469 251.437H263.653L263.72 290.072V290.095Z" fill="#151515"/>
<path fillRule="evenodd" clipRule="evenodd" d="M294.601 273.511L295.31 275.864C299.826 268.944 300.202 243.065 300.711 232.754L298.851 232.685C298.342 239.097 298.364 246.571 297.678 253.513C296.992 260.433 294.977 267.168 294.601 273.511Z" fill="#151515"/>
<path fillRule="evenodd" clipRule="evenodd" d="M466.917 363.79C470.879 356.87 471.256 326.516 465.832 318.258C464.969 319.711 463.773 315.075 465.301 321.949C468.466 336.134 469.241 331.544 466.961 352.349L466.164 361.714C466.363 363.213 466.718 363.351 466.917 363.813V363.79Z" fill="#151515"/>
<path fillRule="evenodd" clipRule="evenodd" d="M101.831 454.229C99.7942 465.624 103.69 469.245 96.0751 478.61C91.4706 484.284 89.8325 490.788 88.7477 500.13H90.3416C91.9798 488.32 93.153 485.16 98.8644 478.079C103.181 472.751 104.421 461.357 102.451 453.514L101.831 454.206V454.229Z" fill="#151515"/>
<path fillRule="evenodd" clipRule="evenodd" d="M8.58901 500.13H10.6699C9.93938 492.98 9.62946 484.491 10.692 477.387C11.7768 470.283 14.1676 462.256 12.7729 455.198C8.78824 461.68 7.94703 490.788 8.58901 500.153V500.13Z" fill="#151515"/>
<path fillRule="evenodd" clipRule="evenodd" d="M457.641 0H455.627L457.221 36.4435C457.243 36.9049 457.221 38.2426 457.309 38.6348C457.973 41.7947 457.154 39.2806 458.704 41.3334C460.209 27.4941 457.973 14.093 457.641 0Z" fill="#151515"/>
<path fillRule="evenodd" clipRule="evenodd" d="M425.83 271.112C435.836 271.228 431.63 266.522 436.013 252.245C433.689 253.236 434.929 250.492 432.981 255.589C430.922 260.986 433.313 264.585 430.169 269.198C426.494 268.39 427.313 269.359 426.207 265.369C423.993 257.504 425.897 251.276 423.284 248.6C420.872 254.136 424.369 266.476 425.83 271.112Z" fill="#151515"/>
<path fillRule="evenodd" clipRule="evenodd" d="M210.524 247.055C210.524 250.607 210.126 247.978 211.653 248.969C212.915 244.103 220.597 212.872 217.077 207.936L210.502 247.055H210.524Z" fill="#151515"/>
<path fillRule="evenodd" clipRule="evenodd" d="M456.512 188.399L456.977 188.699C462.534 177.351 469.352 161.044 468.953 146.743C468.001 148.404 465.256 163.119 463.397 168.032C460.74 175.09 456.424 180.58 456.512 188.422V188.399Z" fill="#151515"/>
<path fillRule="evenodd" clipRule="evenodd" d="M263.675 251.46H265.491C266.664 236.952 267.815 224.381 271.933 210.519L274.611 200.901C274.611 196.034 274.611 199.402 273.659 197.833C267.992 218.315 266.066 229.041 263.675 251.483V251.46Z" fill="#151515"/>
<path fillRule="evenodd" clipRule="evenodd" d="M283.754 246.893L283.997 250.284C286.034 245.671 287.694 238.451 288.823 232.754L290.971 217.024C290.306 208.282 291.48 214.878 288.447 212.203C288.646 229.663 285.702 232.293 283.754 246.893Z" fill="#151515"/>
<path fillRule="evenodd" clipRule="evenodd" d="M477.211 0H475.085C474.864 5.53573 475.705 10.8177 475.993 16.3073C476.17 19.4212 476.591 21.9584 476.967 25.003C477.786 31.7843 477.011 29.6853 479.668 32.4532L477.233 0.0230655L477.211 0Z" fill="#151515"/>
<path fillRule="evenodd" clipRule="evenodd" d="M191.464 271.666L193.678 272.473C195.87 269.152 203.817 242.142 204.946 235.983L204.193 234.484C198.548 241.058 199.19 263.57 191.486 271.666H191.464Z" fill="#151515"/>
<path fillRule="evenodd" clipRule="evenodd" d="M168.906 263.731L170.567 263.616C166.338 256.558 166.715 240.712 168.065 231.601L167.025 229.64C164.346 235.707 163.881 251.299 167.091 260.179L168.906 263.731Z" fill="#151515"/>
<path fillRule="evenodd" clipRule="evenodd" d="M298.852 232.685L300.711 232.754C301.973 228.81 301.973 228.072 305.448 226.85C311.093 231.37 311.27 244.01 311.846 252.314L312.643 249.408C313.086 244.748 312.665 239.512 311.625 234.507C310.319 228.233 309.433 226.411 305.448 224.451C300.866 225.535 300.003 227.08 298.852 232.685Z" fill="#151515"/>
<path fillRule="evenodd" clipRule="evenodd" d="M145.485 276.117L146.039 276.21C151.307 266.222 149.16 257.988 149.094 246.732C148.053 247.032 146.725 243.895 147.057 252.222C147.19 255.843 147.81 257.527 147.455 261.471C146.991 266.868 145.242 270.812 145.485 276.117Z" fill="#151515"/>
<path fillRule="evenodd" clipRule="evenodd" d="M233.414 276.786C236.093 285.251 234.565 295.746 234.499 304.972L236.38 305.78C237.266 297.015 238.107 290.003 236.38 282.045C236.248 281.446 236.004 279.923 235.783 279.324C234.255 274.872 235.849 278.539 234.144 276.556L233.392 276.809L233.414 276.786Z" fill="#151515"/>
<path fillRule="evenodd" clipRule="evenodd" d="M316.362 370.525L318.155 366.788C321.785 354.494 326.943 343.423 326.501 334.427C326.346 334.635 326.08 334.681 326.014 335.073L324.907 338.671C324.53 340.863 324.708 341.278 324.11 343.469C323.379 346.145 322.095 348.912 321.011 351.634C318.708 357.424 316.14 364.228 316.34 370.548L316.362 370.525Z" fill="#151515"/>
<path fillRule="evenodd" clipRule="evenodd" d="M244.77 31.0462L246.63 31.5767C252.806 19.352 251.611 14.416 252.054 0H250.393C249.906 15.846 250.925 16.7917 244.77 31.0462Z" fill="#151515"/>
<path fillRule="evenodd" clipRule="evenodd" d="M158.812 234.254H160.826C161.358 230.494 161.889 224.497 162.177 219.791C162.465 215.317 164.346 207.959 161.446 205.283L158.79 234.254H158.812Z" fill="#151515"/>
<path fillRule="evenodd" clipRule="evenodd" d="M161.424 261.079C161.468 258.588 160.87 258.864 162.996 259.925C158.856 249.223 160.826 244.91 160.826 234.23H158.812C158.214 241.542 157.107 255.013 161.424 261.079Z" fill="#151515"/>
<path fillRule="evenodd" clipRule="evenodd" d="M235.274 0H233.48C233.635 6.11237 234.543 8.39585 230.182 10.8869C226.374 7.58856 227.216 6.11237 227.526 0H225.577C225.002 7.3579 225.334 7.45017 227.415 12.9628C232.285 13.0551 232.971 13.032 234.521 8.99556C235.561 6.27382 235.384 3.15998 235.296 0L235.274 0Z" fill="#151515"/>
<path fillRule="evenodd" clipRule="evenodd" d="M18.2188 500.13H20.0561C20.4768 494.917 23.0889 480.801 22.2477 476.188C21.2958 471.044 22.0928 474.619 20.7203 473.097L18.1966 500.107L18.2188 500.13Z" fill="#151515"/>
<path fillRule="evenodd" clipRule="evenodd" d="M331.216 0H328.914C328.161 4.33632 328.604 5.97397 325.77 9.01862L325.15 0H323.247L324.398 12.0171C326.014 16.7917 324.398 12.8706 326.169 14.5082C329.246 10.4487 329.622 5.51266 331.216 0Z" fill="#151515"/>
<path fillRule="evenodd" clipRule="evenodd" d="M324.708 304.673L325.814 305.457C328.161 302.112 327.785 297.891 327.895 293.301C328.05 287.743 328.781 285.367 326.479 280.984L324.708 304.673Z" fill="#151515"/>
<path fillRule="evenodd" clipRule="evenodd" d="M299.515 284.283C299.715 284.652 300.002 284.721 300.113 285.367C300.202 286.036 300.534 286.151 300.644 286.474C300.799 286.866 301.707 289.795 301.707 289.841C301.486 278.263 302.438 279.808 305.315 271.435C311.868 274.803 304.319 270.328 307.529 272.496L309.189 272.473C307.928 269.636 307.551 269.498 305.072 268.091C301.087 272.473 301.22 279.047 299.493 284.26L299.515 284.283Z" fill="#151515"/>
<path fillRule="evenodd" clipRule="evenodd" d="M306.821 309.217L306.599 308.156C300.423 308.663 302.349 295.423 301.707 289.842C301.707 289.795 300.777 286.866 300.645 286.474C300.512 286.151 300.202 286.036 300.113 285.367C300.003 284.698 299.715 284.652 299.516 284.283C300.025 290.718 300.667 294.27 300.689 300.036C300.711 305.964 300.534 309.17 305.205 310.9C309.101 309.286 306.068 310.993 306.843 309.24L306.821 309.217Z" fill="#151515"/>
<path fillRule="evenodd" clipRule="evenodd" d="M292.564 300.082C294.623 299.367 294.822 301.143 294.402 298.952L295.309 275.864L294.601 273.511C293.118 283.452 292.255 289.98 292.564 300.082Z" fill="#151515"/>
<path fillRule="evenodd" clipRule="evenodd" d="M310.938 294.847L312.886 294.408C312.931 287.189 310.717 279.093 309.19 272.496L307.529 272.519C308.437 279.946 311.824 287.789 310.961 294.87L310.938 294.847Z" fill="#151515"/>
<path fillRule="evenodd" clipRule="evenodd" d="M455.516 500.13H457.531C457.376 496.37 456.867 491.204 457.132 487.582C457.509 482.416 458.992 483.315 459.523 478.679C453.546 482.785 455.339 492.288 455.516 500.13Z" fill="#151515"/>
<path fillRule="evenodd" clipRule="evenodd" d="M146.039 276.21L145.485 276.117C142.984 279.831 141.855 289.749 141.81 293.947C146.282 290.234 143.958 290.672 146.016 276.21H146.039Z" fill="#151515"/>
<path fillRule="evenodd" clipRule="evenodd" d="M220.619 282.576C218.626 288.919 215.239 293.832 212.871 298.26L214.044 299.229C217.675 294.547 220.973 287.743 222.965 280.062C220.42 282.484 223.032 277.686 220.597 282.576H220.619Z" fill="#151515"/>
<path fillRule="evenodd" clipRule="evenodd" d="M294.247 500.13H296.195L298.874 486.268C299.361 480.04 298.896 483.131 297.833 481.724L294.269 500.13H294.247Z" fill="#151515"/>
<path fillRule="evenodd" clipRule="evenodd" d="M135.922 241.727L137.494 244.01L141.013 232.108C140.217 230.84 140.372 231.901 139.796 229.571C139.796 229.548 139.486 226.527 139.464 226.25C139.397 224.312 139.575 222.651 139.73 220.737C137.405 223.09 138.999 228.003 138.778 231.97C138.556 235.73 136.83 238.959 135.922 241.704V241.727Z" fill="#151515"/>
<path fillRule="evenodd" clipRule="evenodd" d="M203.219 274.364L204.038 274.434C206.894 269.821 208.598 264.608 209.749 258.634C209.683 256.143 210.369 256.627 208.244 256.627C207.646 263.87 204.149 268.483 203.219 274.341V274.364Z" fill="#151515"/>
<path fillRule="evenodd" clipRule="evenodd" d="M234.698 258.841L239.479 275.518C240.918 274.318 241.118 277.34 240.431 273.419L235.827 256.835C233.879 257.434 233.281 254.044 234.698 258.841Z" fill="#151515"/>
<path fillRule="evenodd" clipRule="evenodd" d="M107.918 500.13H110.132C111.217 496.047 118.168 491.619 119.607 500.13H121.666L117.792 493.649C111.483 493.21 110.088 495.632 107.896 500.13H107.918Z" fill="#151515"/>
<path fillRule="evenodd" clipRule="evenodd" d="M303.412 500.13H305.249L307.086 496.186C310.031 498.631 308.016 495.378 309.3 500.13H311.16C310.053 495.217 309.19 494.294 305.271 493.164L303.412 500.13Z" fill="#151515"/>
<path fillRule="evenodd" clipRule="evenodd" d="M280.743 264.838L281.584 258.472L282.426 263.224L284.02 250.284L283.776 246.893C281.097 250.284 280.81 259.879 280.765 264.838H280.743Z" fill="#151515"/>
<path fillRule="evenodd" clipRule="evenodd" d="M403.826 500.13H405.907C406.128 495.978 408.01 489.727 406.106 487.029C404.556 490.512 404.114 495.494 403.826 500.13Z" fill="#151515"/>
<path fillRule="evenodd" clipRule="evenodd" d="M174.175 267.145L173.024 268.321C174.574 269.359 171.784 268.783 176.212 269.936C177.363 270.236 178.669 270.374 179.864 270.282C182.676 270.028 183.65 269.129 185.221 266.591C183.495 266.107 182.919 267.606 184.602 265.115L181.193 268.39L174.175 267.122V267.145Z" fill="#151515"/>
<path fillRule="evenodd" clipRule="evenodd" d="M323.18 500.13H325.35C325.66 496.301 326.656 490.881 325.106 487.905C323.202 490.858 323.49 496.532 323.202 500.13H323.18Z" fill="#151515"/>
<path fillRule="evenodd" clipRule="evenodd" d="M220.619 282.576C223.054 277.709 220.442 282.484 222.987 280.062C223.319 276.325 224.382 274.872 227.99 273.926L227.548 271.781C221.394 273.765 221.416 274.849 220.619 282.576Z" fill="#151515"/>
<path fillRule="evenodd" clipRule="evenodd" d="M239.502 275.518L242.003 284.006L244.305 284.721C243.951 282.091 243.973 281.861 243.066 278.747C242.933 278.286 242.291 276.256 242.202 276.048C241.273 273.926 241.494 274.48 240.431 273.419C241.118 277.34 240.918 274.318 239.48 275.518H239.502Z" fill="#151515"/>
<path fillRule="evenodd" clipRule="evenodd" d="M308.703 304.88C310.451 304.673 310.009 304.281 309.898 306.172C310.451 305.295 310.208 306.241 311.248 303.727C311.735 302.574 311.78 302.435 312.112 301.236C313.019 298.03 312.909 298.191 312.887 294.408L310.938 294.847C310.806 298.722 309.455 301.605 308.703 304.88Z" fill="#151515"/>
<path fillRule="evenodd" clipRule="evenodd" d="M234.698 258.841C233.281 254.044 233.879 257.434 235.827 256.835L234.499 247.332L232.396 247.378C232.861 251.114 232.639 256.12 234.698 258.841Z" fill="#151515"/>
<path fillRule="evenodd" clipRule="evenodd" d="M275.32 256.258L273.084 256.673L273.682 276.094L275.32 256.258Z" fill="#151515"/>
<path fillRule="evenodd" clipRule="evenodd" d="M184.602 265.138C182.919 267.629 183.495 266.13 185.221 266.614C187.811 263.132 188.011 262.393 188.653 257.688C188.343 255.358 188.963 255.635 186.97 256.627L184.602 265.138Z" fill="#151515"/>
<path fillRule="evenodd" clipRule="evenodd" d="M242.778 299.506C243.287 292.333 242.601 297.868 244.549 295.654L245.213 305.318C245.545 300.775 246.143 292.379 244.106 289.173C244.128 290.28 244.305 292.379 244.173 293.301C243.885 295.539 243.553 295.4 243.066 296.323C243.088 294.593 243.265 291.387 243.11 289.749C242.557 284.213 243.154 288.504 242.003 286.612L242.778 299.506Z" fill="#151515"/>
<path fillRule="evenodd" clipRule="evenodd" d="M273.084 256.673L275.32 256.258L275.873 247.309L273.814 247.539L273.084 256.673Z" fill="#151515"/>
<path fillRule="evenodd" clipRule="evenodd" d="M466.828 500.13H468.975C468.931 498.492 469.086 495.747 468.975 494.386C468.599 489.243 469.573 497.823 468.688 492.311L468.001 490.511C467.581 491.25 467.249 491.226 466.85 493.279C466.784 493.695 466.695 495.078 466.673 495.517C466.607 496.647 466.806 498.861 466.806 500.13H466.828Z" fill="#151515"/>
<path fillRule="evenodd" clipRule="evenodd" d="M172.028 240.643C173.511 241.496 173.312 241.081 174.573 241.98C173.998 238.29 174.33 236.006 176.123 232.87C172.935 232.87 173.998 233.562 173.998 229.756L172.028 240.62V240.643Z" fill="#151515"/>
<path fillRule="evenodd" clipRule="evenodd" d="M292.565 300.083L294.136 310.762C295.42 309.378 296.261 312.515 295.022 305.318C294.734 303.635 294.513 301.42 294.402 298.929C294.823 301.121 294.601 299.344 292.565 300.06V300.083Z" fill="#151515"/>
<path fillRule="evenodd" clipRule="evenodd" d="M196.954 282.437C198.769 282.437 198.304 281.953 198.393 283.821C201.005 281.076 202.444 277.478 204.038 274.457L203.219 274.387C199.411 277.709 199.876 279.393 196.954 282.46V282.437Z" fill="#151515"/>
<path fillRule="evenodd" clipRule="evenodd" d="M227.99 273.926C233.237 275.08 229.85 275.103 233.414 276.786L234.167 276.533C233.547 272.635 232.44 272.266 227.548 271.804L227.99 273.949V273.926Z" fill="#151515"/>
<path fillRule="evenodd" clipRule="evenodd" d="M286.388 281.815C288.624 282.414 288.071 278.447 288.026 284.006L289.355 276.164L287.872 272.819L286.388 281.815Z" fill="#151515"/>
<path fillRule="evenodd" clipRule="evenodd" d="M242.003 286.612C243.154 288.481 242.557 284.213 243.11 289.749C243.265 291.387 243.088 294.593 243.066 296.323C243.531 295.4 243.863 295.539 244.173 293.301C244.283 292.379 244.106 290.28 244.106 289.173L244.327 284.721L242.025 284.006V286.612H242.003Z" fill="#151515"/>
<path fillRule="evenodd" clipRule="evenodd" d="M208.244 256.65C210.369 256.65 209.683 256.166 209.749 258.657L211.653 248.969C210.126 247.977 210.502 250.584 210.524 247.055L208.244 256.65Z" fill="#151515"/>
<path fillRule="evenodd" clipRule="evenodd" d="M186.97 256.627C188.963 255.635 188.365 255.359 188.653 257.688L190.424 248.969L188.343 249.269L186.948 256.627H186.97Z" fill="#151515"/>
<path fillRule="evenodd" clipRule="evenodd" d="M207.071 304.073L208.155 304.35C210.303 302.574 211.454 301.167 214.044 299.206L212.871 298.237C208.355 301.397 210.17 298.722 207.071 304.073Z" fill="#151515"/>
<path fillRule="evenodd" clipRule="evenodd" d="M173.024 268.321L174.175 267.145C172.581 265 172.537 265.092 170.567 263.616L168.906 263.731C170.39 267.353 169.593 266.43 173.024 268.321Z" fill="#151515"/>
<path fillRule="evenodd" clipRule="evenodd" d="M152.813 237.575L153.432 227.841L153.742 222.998C151.108 224.428 152.082 224.289 152.348 228.533C152.547 231.578 152.702 234.553 152.791 237.575H152.813Z" fill="#151515"/>
<path fillRule="evenodd" clipRule="evenodd" d="M448.056 160.259L449.008 164.665C451.177 161.574 450.735 160.744 449.428 157.745L448.034 160.259H448.056Z" fill="#151515"/>
<path fillRule="evenodd" clipRule="evenodd" d="M339.318 0H337.326L335.71 8.55731L339.318 0Z" fill="#151515"/>
<path fillRule="evenodd" clipRule="evenodd" d="M234.521 89.8402C233.813 88.6639 234.1 89.5403 233.547 87.4875C233.481 87.2569 233.481 85.7576 233.481 85.3655L231.909 91.6393C237.045 90.8551 232.595 91.8469 234.521 89.8633V89.8402Z" fill="#151515"/>
<path fillRule="evenodd" clipRule="evenodd" d="M411.397 336.365C412.371 338.81 409.36 338.648 413.5 338.187L412.238 333.62L411.397 336.365Z" fill="#151515"/>
<path fillRule="evenodd" clipRule="evenodd" d="M309.455 307.325L309.898 306.149C310.008 304.28 310.451 304.65 308.702 304.857L307.773 305.895C307.463 308.409 306.998 307.81 309.455 307.325Z" fill="#151515"/>
<path fillRule="evenodd" clipRule="evenodd" d="M306.599 308.155L306.821 309.216L309.455 307.325C306.998 307.809 307.463 308.409 307.773 305.895C306.201 306.679 306.511 304.35 306.599 308.155Z" fill="#151515"/>
<path fillRule="evenodd" clipRule="evenodd" d="M317.225 78.146L318.531 75.7933C314.237 75.7242 317.978 75.4474 316.384 77.2234L317.225 78.146Z" fill="#151515"/>
<path fillRule="evenodd" clipRule="evenodd" d="M185.509 374.146L184.38 372.693L183.273 375.207L185.509 374.146Z" fill="#151515"/>
<path fillRule="evenodd" clipRule="evenodd" d="M317.07 246.317L319.063 247.885L318.664 243.987C318.421 246.778 319.262 246.317 317.048 246.317H317.07Z" fill="#151515"/>
<path fillRule="evenodd" clipRule="evenodd" d="M294.712 455.037L295.442 451.761L293.118 451.738C295.487 453.191 295.31 449.155 294.712 455.037Z" fill="#151515"/>
<path fillRule="evenodd" clipRule="evenodd" d="M67.8059 383.787C66.1013 378.621 66.9204 382.38 69.3555 380.835L66.6105 381.55L67.828 383.787H67.8059Z" fill="#151515"/>
<path fillRule="evenodd" clipRule="evenodd" d="M315.189 318.535C312.488 318.535 313.019 319.273 313.351 316.551L313.241 319.204L315.189 318.535Z" fill="#151515"/>
<path fillRule="evenodd" clipRule="evenodd" d="M35.5742 58.6787C34.9543 53.3045 34.733 56.5567 37.2345 55.4957L35.5078 55.0574L35.552 58.6557L35.5742 58.6787Z" fill="#151515"/>
</g>
<defs>
<clipPath id="clip0_2002_3136">
<rect width="480" height="500.13" fill="white"/>
</clipPath>
</defs>
</svg>
