<svg width="132" height="131" viewBox="0 0 132 131" fill="none" xmlns="http://www.w3.org/2000/svg">
<g filter="url(#filter0_f_4659_33338)">
<circle cx="66.3832" cy="65.5009" r="22.0492" fill="#BB1818"/>
</g>
<path d="M31.5378 79.5758C31.5378 79.4257 31.2465 77.9785 36.7438 76.9912C36.7438 78.6656 36.7438 82.6339 36.7438 82.6339C36.7438 82.6339 31.5378 81.9058 31.5378 79.5758Z" fill="#BB1818"/>
<path d="M101.655 51.0895C101.655 50.9394 101.946 49.4922 96.4492 48.5049C96.4492 50.1793 96.4492 54.1475 96.4492 54.1475C96.4492 54.1475 101.655 53.4195 101.655 51.0895Z" fill="#BB1818"/>
<path d="M50.5694 32.6318C48.6121 32.6318 46.8038 33.6759 45.8248 35.3713L28.4638 65.4412L28.4297 65.5005L45.8248 95.6303C46.8033 97.3251 48.6121 98.3697 50.5694 98.3697H66.3237V65.4412V32.6318H50.5694Z" fill="#EAEAEA"/>
<path d="M104.303 65.4412L86.9422 35.3713C85.9633 33.6764 84.155 32.6318 82.1977 32.6318H66.3242V65.4412V98.3697H82.1977C84.155 98.3697 85.9633 97.3257 86.9422 95.6303L104.337 65.5005L104.303 65.4412Z" fill="#EAEAEA"/>
<mask id="path-6-outside-1_4659_33338" maskUnits="userSpaceOnUse" x="32.5137" y="26.5469" width="68" height="78" fill="black">
<rect fill="white" x="32.5137" y="26.5469" width="68" height="78"/>
<path fill-rule="evenodd" clip-rule="evenodd" d="M66.3228 27.581L66.3821 27.5469L96.5118 44.942C98.2072 45.921 99.2513 47.7292 99.2513 49.6866V81.3144C99.2513 83.2718 98.2067 85.0806 96.5118 86.059L66.3821 103.454L66.3228 103.42V103.419L36.2531 86.0586C34.5577 85.0796 33.5137 83.2713 33.5137 81.314V49.6862C33.5137 47.7288 34.5577 45.9206 36.2531 44.9416L66.3228 27.5888V27.581Z"/>
</mask>
<path fill-rule="evenodd" clip-rule="evenodd" d="M66.3228 27.581L66.3821 27.5469L96.5118 44.942C98.2072 45.921 99.2513 47.7292 99.2513 49.6866V81.3144C99.2513 83.2718 98.2067 85.0806 96.5118 86.059L66.3821 103.454L66.3228 103.42V103.419L36.2531 86.0586C34.5577 85.0796 33.5137 83.2713 33.5137 81.314V49.6862C33.5137 47.7288 34.5577 45.9206 36.2531 44.9416L66.3228 27.5888V27.581Z" fill="#BB1818"/>
<g clip-path="url(#paint0_diamond_4659_33338_clip_path)" data-figma-skip-parse="true" mask="url(#path-6-outside-1_4659_33338)"><g transform="matrix(0.100306 0.0258446 -0.0267767 0.0858086 36.5619 54.2881)"><rect x="0" y="0" width="726.611" height="546.161" fill="url(#paint0_diamond_4659_33338)" opacity="1" shape-rendering="crispEdges"/><rect x="0" y="0" width="726.611" height="546.161" transform="scale(1 -1)" fill="url(#paint0_diamond_4659_33338)" opacity="1" shape-rendering="crispEdges"/><rect x="0" y="0" width="726.611" height="546.161" transform="scale(-1 1)" fill="url(#paint0_diamond_4659_33338)" opacity="1" shape-rendering="crispEdges"/><rect x="0" y="0" width="726.611" height="546.161" transform="scale(-1)" fill="url(#paint0_diamond_4659_33338)" opacity="1" shape-rendering="crispEdges"/></g></g><path d="M66.3821 27.5469L66.6532 27.0773L66.3826 26.9211L66.1117 27.0769L66.3821 27.5469ZM66.3228 27.581L66.0524 27.111L65.7806 27.2674V27.581H66.3228ZM96.5118 44.942L96.7829 44.4725L96.7829 44.4725L96.5118 44.942ZM96.5118 86.059L96.2407 85.5894L96.2407 85.5894L96.5118 86.059ZM66.3821 103.454L66.1117 103.924L66.3826 104.08L66.6532 103.924L66.3821 103.454ZM66.3228 103.42H65.7806V103.734L66.0524 103.89L66.3228 103.42ZM66.3228 103.419H66.865V103.106L66.5939 102.95L66.3228 103.419ZM36.2531 86.0586L35.982 86.5281L35.982 86.5281L36.2531 86.0586ZM36.2531 44.9416L35.9821 44.472L35.982 44.4721L36.2531 44.9416ZM66.3228 27.5888L66.5938 28.0584L66.865 27.9019V27.5888H66.3228ZM66.1117 27.0769L66.0524 27.111L66.5931 28.051L66.6524 28.0169L66.1117 27.0769ZM96.7829 44.4725L66.6532 27.0773L66.111 28.0164L96.2407 45.4116L96.7829 44.4725ZM99.7935 49.6866C99.7935 47.5355 98.6461 45.5483 96.7829 44.4725L96.2407 45.4116C97.7684 46.2937 98.7091 47.923 98.7091 49.6866H99.7935ZM99.7935 81.3144V49.6866H98.7091V81.3144H99.7935ZM96.7829 86.5285C98.6455 85.4533 99.7935 83.4655 99.7935 81.3144H98.7091C98.7091 83.078 97.7679 84.7078 96.2407 85.5894L96.7829 86.5285ZM66.6532 103.924L96.7829 86.5285L96.2407 85.5894L66.111 102.985L66.6532 103.924ZM66.0524 103.89L66.1117 103.924L66.6525 102.984L66.5932 102.95L66.0524 103.89ZM65.7806 103.419V103.42H66.865V103.419H65.7806ZM35.982 86.5281L66.0517 103.889L66.5939 102.95L36.5242 85.589L35.982 86.5281ZM32.9715 81.314C32.9715 83.4651 34.1189 85.4523 35.982 86.5281L36.5242 85.589C34.9965 84.7069 34.0559 83.0776 34.0559 81.314H32.9715ZM32.9715 49.6862V81.314H34.0559V49.6862H32.9715ZM35.982 44.4721C34.1189 45.5479 32.9715 47.5351 32.9715 49.6862H34.0559C34.0559 47.9226 34.9965 46.2933 36.5242 45.4112L35.982 44.4721ZM66.0518 27.1191L35.9821 44.472L36.5241 45.4112L66.5938 28.0584L66.0518 27.1191ZM65.7806 27.581V27.5888H66.865V27.581H65.7806Z" data-figma-gradient-fill="{&#34;type&#34;:&#34;GRADIENT_DIAMOND&#34;,&#34;stops&#34;:[{&#34;color&#34;:{&#34;r&#34;:0.73333334922790527,&#34;g&#34;:0.094117648899555206,&#34;b&#34;:0.094117648899555206,&#34;a&#34;:1.0},&#34;position&#34;:0.0},{&#34;color&#34;:{&#34;r&#34;:0.15000000596046448,&#34;g&#34;:0.15000000596046448,&#34;b&#34;:0.15000000596046448,&#34;a&#34;:1.0},&#34;position&#34;:1.0}],&#34;stopsVar&#34;:[{&#34;color&#34;:{&#34;r&#34;:0.73333334922790527,&#34;g&#34;:0.094117648899555206,&#34;b&#34;:0.094117648899555206,&#34;a&#34;:1.0},&#34;position&#34;:0.0},{&#34;color&#34;:{&#34;r&#34;:0.15000000596046448,&#34;g&#34;:0.15000000596046448,&#34;b&#34;:0.15000000596046448,&#34;a&#34;:1.0},&#34;position&#34;:1.0}],&#34;transform&#34;:{&#34;m00&#34;:200.61122131347656,&#34;m01&#34;:-53.553394317626953,&#34;m02&#34;:-36.967037200927734,&#34;m10&#34;:51.689212799072266,&#34;m11&#34;:171.61714172363281,&#34;m12&#34;:-57.365104675292969},&#34;opacity&#34;:1.0,&#34;blendMode&#34;:&#34;NORMAL&#34;,&#34;visible&#34;:true}" mask="url(#path-6-outside-1_4659_33338)"/>
<path d="M49.9199 89.3901C49.9199 89.3901 50.4333 89.368 51.3324 89.3292C52.231 89.304 53.5149 89.2421 55.056 89.2137C56.5966 89.188 58.3944 89.1297 60.3203 89.1177C62.2461 89.1045 64.3006 89.0899 66.3545 89.0757C68.409 89.0899 70.4634 89.104 72.3893 89.1171C74.3151 89.1276 76.1129 89.1875 77.6535 89.2132C79.1941 89.241 80.478 89.304 81.3771 89.3292C82.2758 89.368 82.7896 89.3906 82.7896 89.3906C82.7896 89.3906 82.2763 89.4132 81.3771 89.452C80.4785 89.4772 79.1946 89.5402 77.6535 89.568C76.1129 89.5938 74.3151 89.6536 72.3893 89.6641C70.4634 89.6772 68.409 89.6914 66.3545 89.7056C64.3001 89.6914 62.2461 89.6772 60.3203 89.6636C58.3944 89.6515 56.5966 89.5932 55.056 89.5675C53.5155 89.5392 52.2316 89.4772 51.3324 89.452C50.4338 89.4121 49.9199 89.3901 49.9199 89.3901Z" fill="#EAEAEA"/>
<path d="M54.6016 93.0801L66.3241 99.9006V93.0801H54.6016Z" fill="#151515"/>
<path d="M66.3223 93.0801V99.9006L78.0448 93.0801H66.3223Z" fill="#151515"/>
<path d="M49.7559 41.6646C49.7559 41.6646 50.2692 41.6867 51.1684 41.7255C52.067 41.7507 53.3509 41.8126 54.892 41.841C56.4326 41.8667 58.2303 41.9249 60.1562 41.937C62.0821 41.9501 64.1365 41.9648 66.1905 41.979C68.2449 41.9648 70.2994 41.9507 72.2252 41.9375C74.1511 41.927 75.9489 41.8672 77.4894 41.8415C79.03 41.8137 80.3139 41.7507 81.2131 41.7255C82.1117 41.6867 82.6256 41.6641 82.6256 41.6641C82.6256 41.6641 82.1122 41.6415 81.2131 41.6027C80.3144 41.5775 79.0305 41.5145 77.4894 41.4867C75.9489 41.4609 74.1511 41.4011 72.2252 41.3906C70.2994 41.3775 68.2449 41.3633 66.1905 41.3491C64.136 41.3633 62.0821 41.3775 60.1562 41.3911C58.2303 41.4032 56.4326 41.4615 54.892 41.4872C53.3514 41.5155 52.0675 41.5775 51.1684 41.6027C50.2697 41.6426 49.7559 41.6646 49.7559 41.6646Z" fill="#EAEAEA"/>
<path d="M54.4395 37.9746L66.162 31.1541V37.9746H54.4395Z" fill="#151515"/>
<path d="M66.1621 37.9746V31.1541L77.8847 37.9746H66.1621Z" fill="#151515"/>
<path d="M50.4165 62.9575V53.8435H54.8693C56.0151 53.8435 56.8744 54.0605 57.4473 54.4945C58.0288 54.9285 58.3196 55.5014 58.3196 56.2132C58.3196 56.6906 58.2024 57.1072 57.9681 57.4631C57.7337 57.8103 57.4126 58.0794 57.0046 58.2703C56.5966 58.4613 56.1279 58.5568 55.5984 58.5568L55.8458 58.023C56.4187 58.023 56.9265 58.1184 57.3692 58.3094C57.8118 58.4917 58.1547 58.7651 58.3977 59.1297C58.6495 59.4942 58.7753 59.9412 58.7753 60.4707C58.7753 61.2519 58.4672 61.8638 57.8509 62.3065C57.2346 62.7405 56.3276 62.9575 55.1297 62.9575H50.4165ZM52.5127 61.3691H54.9735C55.5203 61.3691 55.9326 61.2823 56.2104 61.1087C56.4968 60.9264 56.64 60.64 56.64 60.2494C56.64 59.8674 56.4968 59.5853 56.2104 59.4031C55.9326 59.2121 55.5203 59.1166 54.9735 59.1166H52.3565V57.5803H54.6089C55.121 57.5803 55.5116 57.4935 55.7807 57.3199C56.0585 57.1376 56.1974 56.8642 56.1974 56.4996C56.1974 56.1437 56.0585 55.879 55.7807 55.7054C55.5116 55.5231 55.121 55.432 54.6089 55.432H52.5127V61.3691ZM62.0789 57.5152H66.4666V59.1557H62.0789V57.5152ZM62.2351 61.2649H67.1957V62.9575H60.1389V53.8435H67.0265V55.5361H62.2351V61.2649ZM71.6353 63.1138C70.9062 63.1138 70.2075 63.0183 69.5391 62.8273C68.8707 62.6277 68.3326 62.3716 67.9246 62.0591L68.6407 60.4707C69.0313 60.7485 69.4914 60.9785 70.0208 61.1608C70.559 61.3344 71.1015 61.4212 71.6483 61.4212C72.065 61.4212 72.3991 61.3821 72.6509 61.304C72.9113 61.2172 73.1022 61.1 73.2237 60.9524C73.3453 60.8049 73.406 60.6356 73.406 60.4447C73.406 60.2016 73.3105 60.0107 73.1196 59.8718C72.9286 59.7242 72.6769 59.607 72.3644 59.5202C72.0519 59.4248 71.7047 59.338 71.3228 59.2598C70.9496 59.1731 70.572 59.0689 70.1901 58.9474C69.8169 58.8259 69.474 58.6696 69.1615 58.4787C68.849 58.2877 68.593 58.036 68.3933 57.7235C68.2024 57.411 68.1069 57.0117 68.1069 56.5257C68.1069 56.0049 68.2458 55.5318 68.5235 55.1065C68.81 54.6725 69.2353 54.3296 69.7995 54.0779C70.3724 53.8175 71.0885 53.6873 71.9478 53.6873C72.5207 53.6873 73.0849 53.7567 73.6404 53.8956C74.1959 54.0258 74.6863 54.2255 75.1116 54.4945L74.4606 56.096C74.0353 55.853 73.61 55.675 73.1847 55.5622C72.7594 55.4407 72.3427 55.3799 71.9348 55.3799C71.5268 55.3799 71.1926 55.4276 70.9322 55.5231C70.6718 55.6186 70.4852 55.7445 70.3724 55.9007C70.2595 56.0483 70.2031 56.2219 70.2031 56.4215C70.2031 56.6559 70.2986 56.8468 70.4896 56.9944C70.6805 57.1333 70.9322 57.2461 71.2447 57.3329C71.5572 57.4197 71.9 57.5065 72.2733 57.5933C72.6552 57.6801 73.0328 57.7799 73.406 57.8928C73.7879 58.0056 74.1351 58.1575 74.4476 58.3485C74.7601 58.5394 75.0118 58.7911 75.2028 59.1036C75.4024 59.4161 75.5022 59.811 75.5022 60.2884C75.5022 60.8005 75.359 61.2693 75.0726 61.6946C74.7861 62.1199 74.3565 62.4628 73.7836 62.7232C73.2194 62.9836 72.5033 63.1138 71.6353 63.1138ZM78.471 62.9575V55.5622H75.5545V53.8435H83.4967V55.5622H80.5802V62.9575H78.471ZM45.5705 79.1138C44.8413 79.1138 44.1426 79.0183 43.4742 78.8273C42.8059 78.6277 42.2677 78.3716 41.8598 78.0591L42.5759 76.4707C42.9665 76.7485 43.4265 76.9785 43.956 77.1608C44.4941 77.3344 45.0366 77.4212 45.5835 77.4212C46.0001 77.4212 46.3343 77.3821 46.586 77.304C46.8464 77.2172 47.0374 77.1 47.1589 76.9524C47.2804 76.8049 47.3412 76.6356 47.3412 76.4447C47.3412 76.2016 47.2457 76.0107 47.0547 75.8718C46.8638 75.7242 46.6121 75.607 46.2996 75.5202C45.9871 75.4248 45.6399 75.338 45.258 75.2598C44.8847 75.1731 44.5072 75.0689 44.1252 74.9474C43.752 74.8259 43.4091 74.6696 43.0967 74.4787C42.7842 74.2877 42.5281 74.036 42.3285 73.7235C42.1375 73.411 42.042 73.0117 42.042 72.5257C42.042 72.0049 42.1809 71.5318 42.4587 71.1065C42.7451 70.6725 43.1704 70.3296 43.7346 70.0779C44.3075 69.8175 45.0236 69.6873 45.8829 69.6873C46.4558 69.6873 47.02 69.7567 47.5755 69.8956C48.1311 70.0258 48.6215 70.2255 49.0468 70.4945L48.3958 72.096C47.9705 71.853 47.5452 71.675 47.1198 71.5622C46.6945 71.4407 46.2779 71.3799 45.8699 71.3799C45.462 71.3799 45.1278 71.4276 44.8674 71.5231C44.607 71.6186 44.4204 71.7445 44.3075 71.9007C44.1947 72.0483 44.1383 72.2219 44.1383 72.4215C44.1383 72.6559 44.2337 72.8468 44.4247 72.9944C44.6157 73.1333 44.8674 73.2461 45.1799 73.3329C45.4923 73.4197 45.8352 73.5065 46.2084 73.5933C46.5904 73.6801 46.9679 73.7799 47.3412 73.8928C47.7231 74.0056 48.0703 74.1575 48.3828 74.3485C48.6953 74.5394 48.947 74.7911 49.1379 75.1036C49.3376 75.4161 49.4374 75.811 49.4374 76.2884C49.4374 76.8005 49.2942 77.2693 49.0077 77.6946C48.7213 78.1199 48.2916 78.4628 47.7188 78.7232C47.1546 78.9836 46.4385 79.1138 45.5705 79.1138ZM52.5853 73.5152H56.9731V75.1557H52.5853V73.5152ZM52.7416 77.2649H57.7022V78.9575H50.6454V69.8435H57.5329V71.5361H52.7416V77.2649ZM59.1472 78.9575V69.8435H61.2564V77.2389H65.8264V78.9575H59.1472ZM66.7716 78.9575V69.8435H68.8809V77.2389H73.4509V78.9575H66.7716ZM76.3361 73.5152H80.7238V75.1557H76.3361V73.5152ZM76.4923 77.2649H81.4529V78.9575H74.3961V69.8435H81.2837V71.5361H76.4923V77.2649ZM82.8979 78.9575V69.8435H86.843C87.6589 69.8435 88.362 69.9781 88.9522 70.2472C89.5424 70.5076 89.9981 70.8851 90.3193 71.3799C90.6405 71.8747 90.801 72.4649 90.801 73.1506C90.801 73.8277 90.6405 74.4136 90.3193 74.9083C89.9981 75.3944 89.5424 75.7676 88.9522 76.028C88.362 76.2884 87.6589 76.4186 86.843 76.4186H84.0697L85.0072 75.4942V78.9575H82.8979ZM88.6918 78.9575L86.4133 75.6504H88.6658L90.9703 78.9575H88.6918ZM85.0072 75.7286L84.0697 74.7391H86.7258C87.3768 74.7391 87.8629 74.6002 88.184 74.3224C88.5052 74.036 88.6658 73.6454 88.6658 73.1506C88.6658 72.6472 88.5052 72.2566 88.184 71.9788C87.8629 71.7011 87.3768 71.5622 86.7258 71.5622H84.0697L85.0072 70.5596V75.7286Z" fill="#EAEAEA"/>
<defs>
<filter id="filter0_f_4659_33338" x="0.958424" y="0.0760994" width="130.849" height="130.85" filterUnits="userSpaceOnUse" color-interpolation-filters="sRGB">
<feFlood flood-opacity="0" result="BackgroundImageFix"/>
<feBlend mode="normal" in="SourceGraphic" in2="BackgroundImageFix" result="shape"/>
<feGaussianBlur stdDeviation="21.6878" result="effect1_foregroundBlur_4659_33338"/>
</filter>
<clipPath id="paint0_diamond_4659_33338_clip_path"><path d="M66.3821 27.5469L66.6532 27.0773L66.3826 26.9211L66.1117 27.0769L66.3821 27.5469ZM66.3228 27.581L66.0524 27.111L65.7806 27.2674V27.581H66.3228ZM96.5118 44.942L96.7829 44.4725L96.7829 44.4725L96.5118 44.942ZM96.5118 86.059L96.2407 85.5894L96.2407 85.5894L96.5118 86.059ZM66.3821 103.454L66.1117 103.924L66.3826 104.08L66.6532 103.924L66.3821 103.454ZM66.3228 103.42H65.7806V103.734L66.0524 103.89L66.3228 103.42ZM66.3228 103.419H66.865V103.106L66.5939 102.95L66.3228 103.419ZM36.2531 86.0586L35.982 86.5281L35.982 86.5281L36.2531 86.0586ZM36.2531 44.9416L35.9821 44.472L35.982 44.4721L36.2531 44.9416ZM66.3228 27.5888L66.5938 28.0584L66.865 27.9019V27.5888H66.3228ZM66.1117 27.0769L66.0524 27.111L66.5931 28.051L66.6524 28.0169L66.1117 27.0769ZM96.7829 44.4725L66.6532 27.0773L66.111 28.0164L96.2407 45.4116L96.7829 44.4725ZM99.7935 49.6866C99.7935 47.5355 98.6461 45.5483 96.7829 44.4725L96.2407 45.4116C97.7684 46.2937 98.7091 47.923 98.7091 49.6866H99.7935ZM99.7935 81.3144V49.6866H98.7091V81.3144H99.7935ZM96.7829 86.5285C98.6455 85.4533 99.7935 83.4655 99.7935 81.3144H98.7091C98.7091 83.078 97.7679 84.7078 96.2407 85.5894L96.7829 86.5285ZM66.6532 103.924L96.7829 86.5285L96.2407 85.5894L66.111 102.985L66.6532 103.924ZM66.0524 103.89L66.1117 103.924L66.6525 102.984L66.5932 102.95L66.0524 103.89ZM65.7806 103.419V103.42H66.865V103.419H65.7806ZM35.982 86.5281L66.0517 103.889L66.5939 102.95L36.5242 85.589L35.982 86.5281ZM32.9715 81.314C32.9715 83.4651 34.1189 85.4523 35.982 86.5281L36.5242 85.589C34.9965 84.7069 34.0559 83.0776 34.0559 81.314H32.9715ZM32.9715 49.6862V81.314H34.0559V49.6862H32.9715ZM35.982 44.4721C34.1189 45.5479 32.9715 47.5351 32.9715 49.6862H34.0559C34.0559 47.9226 34.9965 46.2933 36.5242 45.4112L35.982 44.4721ZM66.0518 27.1191L35.9821 44.472L36.5241 45.4112L66.5938 28.0584L66.0518 27.1191ZM65.7806 27.581V27.5888H66.865V27.581H65.7806Z" mask="url(#path-6-outside-1_4659_33338)"/></clipPath><linearGradient id="paint0_diamond_4659_33338" x1="0" y1="0" x2="500" y2="500" gradientUnits="userSpaceOnUse">
<stop stop-color="#BB1818"/>
<stop offset="1" stop-color="#262626"/>
</linearGradient>
</defs>
</svg>
