<svg width="228" height="36" viewBox="0 0 228 36" fill="none" xmlns="http://www.w3.org/2000/svg">
<path d="M18.0015 25.905L24.2265 29.67C25.3665 30.36 26.7614 29.34 26.4615 28.05L24.8115 20.97L30.3165 16.2C31.3214 15.33 30.7815 13.68 29.4615 13.575L22.2165 12.96L19.3815 6.27005C18.8715 5.05505 17.1315 5.05505 16.6215 6.27005L13.7865 12.945L6.54145 13.56C5.22145 13.665 4.68145 15.315 5.68645 16.185L11.1915 20.955L9.54145 28.035C9.24145 29.325 10.6365 30.345 11.7765 29.655L18.0015 25.905Z" fill="#E0B64B"/>
<path d="M66.0015 25.905L72.2265 29.67C73.3665 30.36 74.7614 29.34 74.4615 28.05L72.8115 20.97L78.3165 16.2C79.3214 15.33 78.7815 13.68 77.4615 13.575L70.2165 12.96L67.3815 6.27005C66.8715 5.05505 65.1315 5.05505 64.6215 6.27005L61.7865 12.945L54.5415 13.56C53.2215 13.665 52.6815 15.315 53.6865 16.185L59.1915 20.955L57.5415 28.035C57.2415 29.325 58.6365 30.345 59.7765 29.655L66.0015 25.905Z" fill="#E0B64B"/>
<path d="M114.001 25.905L120.226 29.67C121.366 30.36 122.761 29.34 122.461 28.05L120.811 20.97L126.316 16.2C127.321 15.33 126.781 13.68 125.461 13.575L118.216 12.96L115.381 6.27005C114.871 5.05505 113.131 5.05505 112.621 6.27005L109.786 12.945L102.541 13.56C101.221 13.665 100.681 15.315 101.686 16.185L107.191 20.955L105.541 28.035C105.241 29.325 106.636 30.345 107.776 29.655L114.001 25.905Z" fill="#E0B64B"/>
<path d="M162.001 25.905L168.226 29.67C169.366 30.36 170.761 29.34 170.461 28.05L168.811 20.97L174.316 16.2C175.321 15.33 174.781 13.68 173.461 13.575L166.216 12.96L163.381 6.27005C162.871 5.05505 161.131 5.05505 160.621 6.27005L157.786 12.945L150.541 13.56C149.221 13.665 148.681 15.315 149.686 16.185L155.191 20.955L153.541 28.035C153.241 29.325 154.636 30.345 155.776 29.655L162.001 25.905Z" fill="#E0B64B"/>
<path d="M210.001 25.905L216.226 29.67C217.366 30.36 218.761 29.34 218.461 28.05L216.811 20.97L222.316 16.2C223.321 15.33 222.781 13.68 221.461 13.575L214.216 12.96L211.381 6.27005C210.871 5.05505 209.131 5.05505 208.621 6.27005L205.786 12.945L198.541 13.56C197.221 13.665 196.681 15.315 197.686 16.185L203.191 20.955L201.541 28.035C201.241 29.325 202.636 30.345 203.776 29.655L210.001 25.905Z" fill="#E0B64B"/>
</svg>
